<?xml version="1.0" encoding="utf-8"?>
<!-- Generator: Adobe Illustrator 26.4.1, SVG Export Plug-In . SVG Version: 6.00 Build 0)  -->
<svg version="1.1" id="Layer_1" xmlns:vectornator="http://vectornator.io"
	 xmlns="http://www.w3.org/2000/svg" xmlns:xlink="http://www.w3.org/1999/xlink" x="0px" y="0px" viewBox="0 0 1014.7 295.2"
	 style="enable-background:new 0 0 1014.7 295.2;" xml:space="preserve">
<path style="fill-rule:evenodd;clip-rule:evenodd;fill:#FF81A3;" d="M594.6,0.9h8.7c1.1,0,2.1,0.2,3.2,0.5c1.2,0.5,2.4,1.1,3.3,2
	c1.5,1.5,2.4,3.7,2.6,5.8c0,0.2,0,0.3,0,0.5c0,0.6,0,1.1,0,1.7c0,2.4-0.2,6.7-0.3,12.8c0,1.4-0.2,2.7-0.2,4.1
	c-0.2,2.7-0.2,5.6-0.2,8.4c-0.2,9-0.3,19.9-0.3,32.9c0,13.5,0.3,27.1,0.8,40.6l32.3-0.3c2.1,0,4.3,0.8,5.8,2.4l0.2,0.2
	c1.4,1.5,2.3,3.3,2.4,5.3c0,0.3,0,0.8,0,1.1v6.2c0,1.2-0.3,2.6-0.8,3.8c-0.5,1.1-1.1,2-2,2.7c-1.7,1.7-4,2.7-6.4,2.9
	c-0.2,0-0.2,0-0.3,0c-8.8,0.5-17.6,0.8-26.3,0.8c-7.5,0-14.9,0-22.4-0.2c-1.4,0-2.7-0.3-4-0.9c-0.9-0.5-1.8-1.1-2.6-1.8
	c-1.8-1.8-2.7-4.3-2.9-6.7l0,0c-0.8-16.6-1.2-33.3-1.4-49.9c0-1.1,0-2.1,0-3.2c0-11.7,0.2-25.1,0.6-40.3c0.2-7.3,0.5-14.5,0.8-21.8
	c0-2.6,1.1-4.9,2.7-6.7c1.7-1.8,4-2.7,6.4-2.7C594.4,0.9,594.4,0.9,594.6,0.9z"/>
<path style="fill-rule:evenodd;clip-rule:evenodd;fill:#097BB8;" d="M678.8,135.1H670c-1.4,0-2.6-0.3-3.8-0.8c-1.1-0.5-2-1.1-2.7-2
	c-1.8-1.8-2.7-4.3-2.9-6.7l0,0c-0.3-9.7-0.6-19.5-0.8-29.2c-0.2-5.5-0.2-11-0.2-16.4c0-6.8,0-13.8,0.2-20.7
	c0.2-6.4,0.3-12.8,0.6-19.3c0-1.4,0.3-2.7,0.9-4c0.5-1.1,1.1-2,1.8-2.7c1.8-1.8,4-2.7,6.5-2.7h8.8c1.2,0,2.4,0.2,3.7,0.6
	c1.1,0.5,2.1,1.1,2.9,2c1.7,1.7,2.6,3.8,2.6,6.2v0.2c0,0.2,0,0.2,0,0.3c0,0.9-0.2,3.5-0.5,8.1c0,0.8-0.2,1.7-0.2,2.4
	c-0.2,2-0.2,4-0.2,5.9c-0.2,6.5-0.3,14.9-0.3,25.4c0,0.2,0,0.3,0,0.3c0,14.6,0.3,29.1,1.1,43.7v0.5c0,2.3-0.9,4.6-2.6,6.2
	c0,0,0,0-0.2,0.2C683.7,134.2,681.4,135.1,678.8,135.1C679,135.1,678.8,135.1,678.8,135.1z M680.7,26.6h-10c-2.6,0-4.9-0.9-6.5-2.7
	c-1.7-1.7-2.7-4-2.7-6.4v-0.2l0.2-7c0-2.6,1.1-4.9,2.7-6.7c1.7-1.8,4-2.7,6.4-2.7h0.2h9.9c1.5,0,3,0.3,4.4,1.1
	c0.8,0.5,1.7,1.1,2.3,1.7c1.1,1.1,2,2.3,2.3,3.8c0.3,0.9,0.5,1.8,0.5,2.7l-0.2,7c0,2.6-1.1,4.9-2.7,6.7c-1.7,1.8-4,2.7-6.4,2.7
	C680.8,26.6,680.8,26.6,680.7,26.6z"/>
<path style="fill-rule:evenodd;clip-rule:evenodd;fill:#2E8E00;" d="M713.4,51l-6.8,0.2c-2.3,0-4.6-0.9-6.1-2.4l-0.2-0.2
	c-1.7-1.8-2.6-4-2.6-6.5v-5c0-1.2,0.3-2.6,0.8-3.8c0.5-1.1,1.1-2,2-2.7c1.7-1.7,3.8-2.6,6.1-2.7c0.3,0,0.5,0,0.8,0l6.7-0.3l0.6-16.6
	c0.2-2.6,1.1-4.9,2.9-6.7c1.7-1.8,4-2.7,6.4-2.7h0.2h8.7c1.2,0,2.4,0.2,3.5,0.6c1.2,0.5,2.1,1.1,3,2c0.8,0.8,1.5,1.7,2,2.7
	c0.5,1.1,0.8,2.1,0.6,3.3c0,2.4-0.2,6.8-0.3,12.9c0,1.4-0.2,2.9-0.2,4.3c5.3,0,10.8,0.3,16.1,0.6c1.4,0,2.7,0.3,4,0.9
	c1.1,0.5,2,1.1,2.7,1.8c1.8,1.8,2.7,4,2.7,6.5v5c0,1.2-0.2,2.4-0.6,3.5c-0.5,1.2-1.1,2.1-2,3c-0.8,0.8-1.7,1.5-2.7,2
	c-1.1,0.5-2.1,0.8-3.3,0.6L740.6,51c-0.2,5.8-0.2,11.6-0.2,17.5c0,15.8,0.8,26.8,2.1,32.9c0.2,0.6,0.3,1.4,0.5,2
	c0.3,1.1,0.8,2.1,1.2,3c0.6,1.1,1.2,2,1.8,2.6c1.2,1.2,3,2,4.7,1.8c2,0,4-0.5,5.6-1.5c1.2-0.6,2.6-1.5,3.8-2.7c1.1-0.9,2.1-2,3-3
	c0.6-0.8,1.4-1.4,2.1-1.8c1.1-0.8,2.1-1.2,3.2-1.4c0.5-0.2,1.1-0.2,1.5-0.2c1.8,0,3.5,0.6,4.7,2l0.2,0.2l5.2,5
	c0.6,0.6,1.1,1.2,1.7,2c0.6,0.8,0.9,1.7,1.2,2.6c0.2,0.6,0.2,1.2,0.2,1.7c0,2-0.6,4-2,5.6c-3.5,4.7-8.1,8.5-13.1,11.4
	c-5.8,3.2-12.3,4.9-19.6,4.9c-0.2,0-0.3,0-0.3,0c-3.5,0-6.8-0.5-10.2-1.2c-6.2-1.7-11.6-5.6-15.2-11c-2-3.2-3.7-6.5-4.7-10.2
	c-2.4-7.3-4-16.6-4.6-28.1c-0.3-5-0.5-10-0.5-15.2c0-2.9,0-5.9,0-8.8C713.2,57.4,713.4,54.2,713.4,51z"/>
<path style="fill-rule:evenodd;clip-rule:evenodd;fill:#321A81;" d="M798.3,51l-6.8,0.2c-2.3,0-4.6-0.9-6.1-2.4l-0.2-0.2
	c-1.7-1.8-2.6-4-2.6-6.5v-5c0-1.2,0.3-2.6,0.8-3.8c0.5-1.1,1.1-2,2-2.7c1.7-1.7,3.8-2.6,6.1-2.7c0.3,0,0.5,0,0.8,0l6.7-0.3l0.6-16.6
	c0.2-2.6,1.1-4.9,2.9-6.7c1.7-1.8,4-2.7,6.4-2.7h0.2h8.7c1.2,0,2.4,0.2,3.5,0.6c1.2,0.5,2.1,1.1,3,2c0.8,0.8,1.5,1.7,2,2.7
	s0.8,2.1,0.6,3.3c0,2.4-0.2,6.8-0.3,12.9c0,1.4-0.2,2.9-0.2,4.3c5.3,0,10.8,0.3,16.1,0.6c1.4,0,2.7,0.3,4,0.9c1.1,0.5,2,1.1,2.7,1.8
	c1.8,1.8,2.7,4,2.7,6.5v5c0,1.2-0.2,2.4-0.6,3.5c-0.5,1.2-1.1,2.1-2,3c-0.8,0.8-1.7,1.5-2.7,2c-1.1,0.5-2.1,0.8-3.3,0.6L825.5,51
	c-0.2,5.8-0.2,11.6-0.2,17.5c0,15.8,0.8,26.8,2.1,32.9c0.2,0.6,0.3,1.4,0.5,2c0.3,1.1,0.8,2.1,1.2,3c0.6,1.1,1.2,2,1.8,2.6
	c1.2,1.2,3,2,4.7,1.8c2,0,4-0.5,5.6-1.5c1.2-0.6,2.6-1.5,3.8-2.7c1.1-0.9,2.1-2,3-3c0.6-0.8,1.4-1.4,2.1-1.8
	c1.1-0.8,2.1-1.2,3.2-1.4c0.5-0.2,1.1-0.2,1.5-0.2c1.8,0,3.5,0.6,4.7,2l0.2,0.2l5.2,5c0.6,0.6,1.1,1.2,1.7,2
	c0.6,0.8,0.9,1.7,1.2,2.6c0.2,0.6,0.2,1.2,0.2,1.7c0,2-0.6,4-2,5.6c-3.5,4.7-8.1,8.5-13.1,11.4c-5.8,3.2-12.3,4.9-19.6,4.9
	c-0.2,0-0.3,0-0.3,0c-3.5,0-6.8-0.5-10.2-1.2c-6.2-1.7-11.6-5.6-15.2-11c-2-3.2-3.7-6.5-4.7-10.2c-2.4-7.3-4-16.6-4.6-28.1
	c-0.3-5-0.5-10-0.5-15.2c0-2.9,0-5.9,0-8.8C798.1,57.4,798.1,54.2,798.3,51z"/>
<path style="fill-rule:evenodd;clip-rule:evenodd;fill:#FF81A3;" d="M894.4,134.9h-8.7c-1.2,0-2.4-0.2-3.5-0.6
	c-1.2-0.5-2.3-1.2-3-2.1c-1.8-1.8-2.7-4.3-2.9-6.7l0,0c-0.8-16.3-1.2-32.6-1.2-48.8c0-0.5,0-1.1,0-1.5c0-18.6,0.5-40.2,1.4-64.7
	c0-1.4,0.3-2.6,0.8-4c0.5-1.1,1.1-2,2-2.9c1.7-1.8,4-2.7,6.4-2.7c0.2,0,0.2,0,0.3,0h8.7c1.2,0,2.3,0.2,3.3,0.6
	c1.2,0.5,2.3,1.1,3.2,2c1.7,1.7,2.6,3.8,2.6,6.2v0.2c0,0.8,0,1.7,0,2.4c0,3.5-0.3,9.3-0.5,17.2c-0.2,2.7-0.2,5.5-0.3,8.2
	c-0.2,8.8-0.3,19.5-0.3,31.8c0,13.5,0.3,26.9,0.8,40.5l17.5-0.2c2.3,0,4.1,0.9,5.8,2.6c1.5,1.5,2.4,3.7,2.4,5.9c0,0.2,0,0.5,0,0.6
	v6.2c0,1.4-0.3,2.6-0.8,3.8c-0.5,1.1-1.1,2-2,2.7c-1.8,1.8-4.3,2.7-6.7,2.9l0,0C911.1,134.6,902.8,134.9,894.4,134.9z"/>
<path style="fill-rule:evenodd;clip-rule:evenodd;fill:#097BB8;" d="M962.2,84.3h-4.7c0.3,2.1,0.8,4.1,1.2,6.2c0.5,2,1.1,4,1.7,5.6
	c0.2,0.5,0.3,0.8,0.5,1.2c0.9,2.3,2.1,4.4,3.5,6.4c3.3,4.6,8.8,7.2,14.6,6.8c6.2,0,12.5-2.3,19-7c1.7-1.2,3.3-1.8,5.2-1.8
	c1.1,0,2.1,0.2,3,0.6c1.2,0.5,2.1,1.4,2.9,2.4c0.2,0.3,0.3,0.5,0.5,0.8l3.8,6.8c0.9,1.7,1.4,3.3,1.4,4.9c0,1.2-0.3,2.3-0.8,3.3
	c-0.5,1.1-1.2,2-2.3,2.7c-0.3,0.2-0.5,0.3-0.8,0.5c-10.8,6.7-23.3,10.3-35.9,10.2c-4.9,0-9.9-0.8-14.5-2.4
	c-6.5-2.4-12.2-6.8-16.3-12.5c-3.7-4.9-6.4-10.3-8.2-16.1c-3.3-9.7-4.9-21.8-4.9-35.9l0,0c0-6.5,0.3-13.1,1.2-19.6
	c2-14.5,6.2-25.7,12.8-33.8c0.6-0.8,1.4-1.7,2.1-2.4C954.6,3.8,963.9,0,975.2,0c2.9,0,5.8,0.2,8.7,0.8c3.5,0.6,6.5,1.5,9.4,2.9
	c0.5,0.2,0.9,0.5,1.2,0.6c6.2,3.3,11.4,8.4,14.6,14.6c2,3.8,3.3,8.1,4,12.3c0.3,2.1,0.5,4.3,0.5,6.4c0,5.9-1.2,12-3.5,17.5
	c-0.2,0.5-0.3,0.8-0.5,1.2c-2.4,5.3-5.8,10-10,14c-0.8,0.8-1.7,1.5-2.6,2.3c-6.4,5.3-14.1,8.8-22.5,10.3
	C970.5,84,966.4,84.3,962.2,84.3z M963.5,63.3c1.5,0,3.2-0.2,4.7-0.3c1.4-0.2,2.9-0.5,4.3-0.9c2.1-0.6,4.4-1.5,6.4-2.6
	c2.9-1.7,5.3-3.7,7.2-6.1c2-2.6,3.3-5.5,4.3-8.7c0.5-1.8,0.8-3.8,0.8-5.8c0-1.8-0.3-3.8-0.8-5.6c-0.5-1.5-1.1-3-2-4.3
	c-1.7-2.6-4.4-4.4-7.6-4.7c-0.6-0.2-1.4-0.2-2-0.2C971.5,24,965,28.3,962.2,35c-3.3,6.4-5.2,15.7-5.5,27.8c1.7,0.2,3.3,0.3,5.2,0.5
	C962.4,63.3,963,63.3,963.5,63.3z"/>
<path style="fill-rule:evenodd;clip-rule:evenodd;fill:#2E8E00;" d="M220.5,294.3h-8.7c-1.4,0-2.9-0.3-4.1-0.9
	c-0.9-0.5-1.8-1.1-2.4-1.8c-1.8-1.8-2.7-4.3-2.7-6.7c-0.6-19.3-0.9-38.5-0.9-57.8c0-14.5,0.2-28.9,0.5-43.2c-1.8,0-3.5,0-5.3,0
	c-3.3,0-6.4,0-8.8,0c-1.1,0-2.1,0-3.2,0c-1.2,0-2.6-0.2-3.7-0.8c-1.1-0.5-2.1-1.2-2.9-2c-1.8-1.7-2.7-4.1-2.7-6.5l0,0v-4.7
	c0-1.4,0.3-2.6,0.8-3.8c0.5-1.1,1.1-2,2-2.7c1.8-1.8,4.3-2.7,6.7-2.9l0,0c4.1-0.2,8.2-0.3,12.3-0.5c4.3-0.2,8.7-0.2,13.2-0.2
	c1.5,0,3.2,0,4.7,0c5,0,10,0,15.1,0.2c4.7,0.2,9.1,0.2,13.4,0.3c0.6,0,1.2,0,1.8,0c1.4,0,2.7,0.3,4,0.9c1.1,0.5,2,1.1,2.7,1.8
	c1.8,1.8,2.7,4,2.7,6.5v4.7c0,1.5-0.3,3-1.1,4.4c-0.5,0.8-1.1,1.7-1.7,2.3c-1.1,1.1-2.3,2-3.8,2.3c-0.9,0.3-1.8,0.5-2.7,0.5
	l-16.1-0.2c-0.6,16.3-0.8,32.6-0.8,48.8c0,17.5,0.5,35,1.2,52.3v0.5c0,2.3-0.9,4.6-2.6,6.1l-0.2,0.2
	C225.2,293.3,223,294.3,220.5,294.3z"/>
<path style="fill-rule:evenodd;clip-rule:evenodd;fill:#321A81;" d="M337.8,294.3h-8.7c-1.4,0-2.9-0.3-4.1-0.9
	c-0.9-0.5-1.8-1.1-2.4-1.8c-1.8-1.8-2.7-4.3-2.7-6.7c-0.2-5.6-0.5-11.3-0.6-16.9c-0.2-5.3-0.3-10.6-0.3-16
	c-4.6-0.2-9.1-0.2-13.7-0.2c-4.9,0-9.6,0-14.5,0.2c0.3,11,0.6,21.9,1.1,33v0.5c0,2.3-0.9,4.6-2.6,6.1l-0.2,0.2
	c-1.8,1.7-4.1,2.6-6.5,2.6h-8.7c-1.4,0-2.9-0.3-4.1-0.9c-0.9-0.5-1.8-1.1-2.4-1.8c-1.8-1.8-2.7-4.3-2.7-6.7
	c-0.3-10.2-0.6-20.4-0.9-30.4c-0.2-9.3-0.3-18-0.5-26.2c0-2.7,0-5.3,0-8.1c0-16.3,0.5-32.6,1.2-48.8c0-0.6,0-1.1,0.2-1.7
	c0-1.4,0.3-2.7,0.9-4c0.5-1.1,1.1-2,1.8-2.7c1.8-1.8,4-2.7,6.5-2.7h8.7c2.4,0,4.9,0.9,6.5,2.6c1.1,0.9,1.8,2.3,2.3,3.7
	c0.3,0.9,0.5,1.8,0.5,2.7v0.5c-0.6,14.1-1.1,28.3-1.2,42.4c0,4.9-0.2,9.9-0.2,14.8c4.9-0.2,9.9-0.2,14.8-0.2c4.4,0,8.8,0,13.2,0.2
	c0-10,0.2-19.9,0.3-30c0.2-9.1,0.5-18.1,0.9-27.2c0-1.4,0.3-2.7,0.9-4c0.5-1.1,1.1-2,1.8-2.7c1.8-1.8,4-2.7,6.5-2.7h8.7
	c2.4,0,4.9,0.9,6.5,2.6c1.1,0.9,1.8,2.3,2.3,3.7c0.3,0.9,0.5,1.8,0.5,2.7v0.5c-0.9,18.3-1.4,37-1.4,56.1c0,18.6,0.5,37,1.2,55.4
	c0,1.2,0.2,2.6,0.2,3.8v0.5c0,2.3-0.9,4.6-2.6,6.1l-0.2,0.2C342.7,293.3,340.3,294.3,337.8,294.3z"/>
<path style="fill-rule:evenodd;clip-rule:evenodd;fill:#FF81A3;" d="M383,294.3h-8.8c-1.4,0-2.6-0.3-3.8-0.8c-1.1-0.5-2-1.1-2.7-2
	c-1.8-1.8-2.7-4.3-2.9-6.7l0,0c-0.3-9.7-0.6-19.5-0.8-29.2c-0.2-5.5-0.2-11-0.2-16.4c0-6.8,0-13.8,0.2-20.7
	c0.2-6.4,0.3-12.8,0.6-19.3c0-1.4,0.3-2.7,0.9-4c0.5-1.1,1.1-2,1.8-2.7c1.8-1.8,4-2.7,6.5-2.7h8.8c1.2,0,2.4,0.2,3.7,0.6
	c1.1,0.5,2.1,1.1,2.9,2c1.7,1.7,2.6,3.8,2.6,6.2v0.2c0,0.2,0,0.2,0,0.3c0,0.9-0.2,3.5-0.5,8.1c0,0.8-0.2,1.7-0.2,2.4
	c-0.2,2-0.2,4-0.2,5.9c-0.2,6.5-0.3,14.9-0.3,25.4c0,0.2,0,0.3,0,0.3c0,14.6,0.3,29.1,1.1,43.7v0.5c0,2.3-0.9,4.6-2.6,6.2
	c0,0,0,0-0.2,0.2C387.9,293.3,385.6,294.3,383,294.3C383.2,294.3,383.2,294.3,383,294.3z M385,185.8h-10c-2.6,0-4.9-0.9-6.5-2.7
	c-1.7-1.7-2.7-4-2.7-6.4v-0.2l0.2-7c0-2.6,1.1-4.9,2.7-6.7c1.7-1.8,4-2.7,6.4-2.7h0.2h9.9c1.5,0,3,0.3,4.4,1.1
	c0.8,0.5,1.7,1.1,2.3,1.7c1.1,1.1,2,2.3,2.3,3.8c0.3,0.9,0.5,1.8,0.5,2.7l-0.2,7c0,2.6-1.1,4.9-2.7,6.7
	C389.8,184.9,387.6,185.8,385,185.8L385,185.8z"/>
<path style="fill-rule:evenodd;clip-rule:evenodd;fill:#097BB8;" d="M483.1,294.3h-8.7c-2.4,0-4.9-0.9-6.5-2.6
	c-1.1-0.9-1.8-2.3-2.3-3.7c-0.3-0.9-0.5-1.8-0.5-2.7v-0.5c0.9-19.2,1.4-38.5,1.4-57.7c0-3,0-6.1-0.2-9.3c-0.2-6.4-0.5-11.7-0.8-16.3
	c-0.2-1.7-0.5-3.3-0.8-5c-0.6-3.7-1.5-6.5-2.7-8.7c-1.7-3.2-4.3-5-7.6-5.3c-0.3,0-0.8,0-1.1,0c-4.6,0-9.9,3-16.1,9.1
	c-0.3,11.1-0.6,22.5-0.6,33.9c0,18.6,0.5,37,1.2,55.4c0,1.2,0.2,2.6,0.2,3.8v0.5c0,2.3-0.9,4.6-2.6,6.1l-0.2,0.2
	c-1.8,1.7-4.1,2.6-6.5,2.6h-8.7c-1.4,0-2.6-0.3-3.8-0.8c-1.1-0.5-2-1.1-2.7-2c-1.8-1.8-2.7-4.3-2.7-6.7l0,0
	c-0.6-17.2-0.9-32.7-1.2-46.9c-0.2-6.1-0.2-12.2-0.2-18.3c0-16.3,0.5-32.9,1.2-49.9c0-1.4,0.3-2.7,0.9-4c0.5-1.1,1.1-2,1.8-2.7
	c1.8-1.8,4-2.7,6.5-2.7h8.7c2.4,0,4.9,0.9,6.7,2.7c1.5,1.4,2.4,3.2,2.7,5.2c2-1.4,4-2.6,6.1-3.7c5-2.7,10.6-4.1,16.4-4.1
	c6.4,0,11.9,1.2,16.1,3.7c1.4,0.8,2.6,1.7,3.8,2.6c3.5,3,6.2,7.5,8.2,13.2c0.8,2.4,1.5,5,2,7.6c0.6,3.2,1.2,6.4,1.5,9.6
	c0.9,7.2,1.4,15.7,1.4,25.4c0,0.6,0,1.4,0,2c0,9.6-0.2,19.2-0.3,28.6c-0.2,10.6-0.5,21.1-0.9,31.8c0,2.6-1.1,4.9-2.7,6.7
	c-1.7,1.8-4,2.7-6.4,2.7C483.1,294.3,483.1,294.3,483.1,294.3z"/>
<path style="fill-rule:evenodd;clip-rule:evenodd;fill:#2E8E00;" d="M579.9,294.3h-8.7c-2.4,0-4.9-0.9-6.7-2.7
	c-1.8-1.8-2.7-4-2.7-6.5c0-3.7-0.2-7.3-0.6-11c-0.9-8.1-2.7-14.6-5.6-19.5c-3.5-6.4-9.6-11-16.7-12.8c-0.5-0.2-0.9-0.3-1.5-0.3
	c0.8,14.1,1.2,28.8,1.2,43.7c0,1.1-0.2,2.3-0.6,3.3c-0.5,1.2-1.2,2.3-2.1,3.2c-1.8,1.7-4.1,2.6-6.5,2.6h-8.7c-1.4,0-2.9-0.3-4.1-0.9
	c-0.9-0.5-1.8-1.1-2.4-1.8c-1.8-1.8-2.7-4.3-2.7-6.7c-0.6-16.4-0.9-32.9-1.1-49.4c0-5.3,0-10.5,0-15.8c0-16.3,0.5-32.9,1.2-49.9
	c0-1.4,0.3-2.7,0.9-4c0.5-1.1,1.1-2,1.8-2.7c1.8-1.8,4-2.7,6.5-2.7h8.7c1.1,0,2.1,0.2,3.2,0.5c1.2,0.5,2.4,1.1,3.3,2
	c0.9,0.8,1.5,1.7,2,2.7c0.5,0.9,0.6,2,0.6,3c0,1.1,0,2.3,0,3.3c-0.2,6.5-0.5,20.2-0.9,41.1c7.3-1.4,13.8-5.9,17.8-12.3
	c0.3-0.5,0.6-0.9,0.8-1.4c1.4-2.4,2.4-5,3.2-7.8c1.5-5,2.3-11.3,2.4-18.6c0-1.2,0-2.4,0-3.7c0-2.4,0.9-4.7,2.6-6.4l0.2-0.2
	c1.8-1.8,4.3-2.7,6.7-2.7h8.7c2.4,0,4.9,0.9,6.7,2.7l0,0c1.8,1.8,2.7,4.1,2.7,6.7c0,8.8-1.4,17.6-4.3,26c-0.8,2.3-1.7,4.6-2.7,6.7
	c-4.1,8.5-10,16-17.6,21.8c-1.5,1.1-3,2.3-4.6,3.2c10.2,6.7,17.6,15.2,22.5,25.7c3,6.7,5,13.7,5.9,21c0.5,3.7,0.6,7.3,0.6,11
	c0,1.4-0.3,2.6-0.8,4c-0.5,1.1-1.1,2-2,2.9C584.7,293.2,582.4,294.3,579.9,294.3L579.9,294.3z"/>
<path style="fill-rule:evenodd;clip-rule:evenodd;fill:#321A81;" d="M628.4,243.4h-4.7c0.3,2.1,0.8,4.1,1.2,6.2c0.5,2,1.1,4,1.7,5.6
	c0.2,0.5,0.3,0.8,0.5,1.2c0.9,2.3,2.1,4.4,3.5,6.4c3.3,4.6,8.8,7.2,14.6,6.8c6.2,0,12.5-2.3,19-7c1.7-1.2,3.3-1.8,5.2-1.8
	c1.1,0,2.1,0.2,3,0.6c1.2,0.5,2.1,1.4,2.9,2.4c0.2,0.3,0.3,0.5,0.5,0.8l3.8,6.8c0.9,1.7,1.4,3.3,1.4,4.9c0,1.2-0.3,2.3-0.8,3.3
	c-0.5,1.1-1.2,2-2.3,2.7c-0.3,0.2-0.5,0.3-0.8,0.5c-10.8,6.7-23.3,10.3-35.9,10.2c-4.9,0-9.9-0.8-14.5-2.4
	c-6.5-2.4-12.2-6.8-16.3-12.5c-3.7-4.9-6.4-10.3-8.2-16.1c-3.2-9.7-4.9-21.8-4.9-35.9l0,0c0-6.5,0.3-13.1,1.2-19.6
	c2-14.5,6.2-25.7,12.8-33.8c0.6-0.8,1.4-1.7,2.1-2.4c7.3-7.5,16.6-11.3,27.8-11.3c2.9,0,5.8,0.2,8.7,0.8c3.5,0.6,6.5,1.5,9.4,2.9
	c0.5,0.2,0.9,0.5,1.2,0.6c6.2,3.3,11.4,8.4,14.6,14.6c2,3.8,3.3,8.1,4,12.3c0.3,2.1,0.5,4.3,0.5,6.4c0,5.9-1.2,12-3.5,17.5
	c-0.2,0.5-0.3,0.8-0.5,1.2c-2.4,5.3-5.8,10-10,14c-0.8,0.8-1.7,1.5-2.6,2.3c-6.4,5.3-14.1,8.8-22.5,10.3
	C636.4,243.1,632.5,243.4,628.4,243.4z M629.6,222.5c1.5,0,3.2-0.2,4.7-0.3c1.4-0.2,2.9-0.5,4.3-0.9c2.1-0.6,4.4-1.5,6.4-2.6
	c2.9-1.7,5.3-3.7,7.2-6.1c2-2.6,3.3-5.5,4.3-8.7c0.5-1.8,0.8-3.8,0.8-5.8c0-1.8-0.3-3.8-0.8-5.6c-0.5-1.5-1.1-3-2-4.3
	c-1.7-2.6-4.4-4.4-7.6-4.7c-0.6-0.2-1.4-0.2-2-0.2c-7.2-0.2-13.7,4.1-16.4,10.8c-3.3,6.4-5.2,15.7-5.5,27.8c1.7,0.2,3.3,0.3,5.2,0.5
	C628.5,222.5,629,222.5,629.6,222.5z"/>
<path style="fill-rule:evenodd;clip-rule:evenodd;fill:#FF81A3;" d="M763.8,294.3h-8.7c-2.4,0-4.9-0.9-6.7-2.7
	c-1.8-1.8-2.7-4-2.7-6.5v-4.1c0-6.4-1.2-11.6-3.5-15.4c-2.1-3.5-5.3-6.1-9.3-7.5c-2.4-0.8-4.9-1.4-7.5-1.7c-1.8-0.3-3.8-0.5-5.6-0.5
	c0.6,9.7,0.9,19.5,0.9,29.2c0,1.1-0.2,2.3-0.6,3.3c-0.5,1.2-1.2,2.3-2.1,3.2c-1.8,1.7-4.1,2.6-6.5,2.6h-8.7c-1.4,0-2.6-0.3-3.8-0.8
	c-1.1-0.5-2-1.1-2.7-2c-1.8-1.8-2.7-4.3-2.7-6.7l0,0c-0.6-17.2-0.9-32.7-1.2-46.9c-0.2-6.1-0.2-12.2-0.2-18.3
	c0-16.3,0.5-32.9,1.2-49.9c0-1.2,0.3-2.4,0.8-3.5c0.5-1.2,1.2-2.3,2-3c1.7-1.7,3.8-2.9,6.2-3c3.5-0.5,7.2-0.8,10.6-0.9
	c2.6-0.2,5.2-0.2,7.6-0.2c6.5,0,13.1,0.8,19.5,2.4c1.8,0.5,3.8,0.9,5.6,1.5c8.8,2.6,16.1,7.5,21.8,14.8c2.7,3.5,5,7.3,6.5,11.4
	c1.4,3.8,2.1,7.9,2.1,12c0,9-2.3,17.3-7,25.4c-3.2,5.5-7.5,10.3-12.3,14.3c-1.5,1.2-3.2,2.4-4.7,3.5c5,2.7,9.4,6.5,12.9,11
	c4.9,6.1,7.6,13.4,8.2,21.9c0.2,1.2,0.2,2.6,0.2,3.8l-0.2,4c0,1.4-0.3,2.6-0.8,4c-0.5,1.1-1.1,2-2,2.9
	C768.6,293.3,766.5,294.3,763.8,294.3z M719.5,225.5l0.2,10.3c2.7-0.5,5.3-1.2,7.9-2.1c2.1-0.8,4.3-1.8,6.4-3
	c5.5-3.2,9.6-7.2,12.3-11.9c1.4-2.1,2.3-4.6,3-6.8c0.8-2.3,1.1-4.7,1.1-7.2c0-4.7-1.5-9.4-4.4-13.1c-0.3-0.3-0.5-0.6-0.8-1.1
	c-2-2.4-4.6-4.6-7.5-6.1c-2-1.1-4.3-2.1-6.8-2.9c-0.3-0.2-0.8-0.2-1.1-0.3c-1.7-0.5-3.3-0.8-5-1.1c-1.4-0.2-2.9-0.3-4.4-0.3
	C719.8,195.1,719.5,210.3,719.5,225.5z"/>
<path style="fill-rule:evenodd;clip-rule:evenodd;fill:#097BB8;" d="M861.8,181.8l-3.8,6.8c-1.4,2.4-3.3,3.7-5.9,3.8
	c-0.2,0-0.5,0-0.6,0c-1.1,0-2-0.2-2.9-0.6c-0.6-0.3-1.4-0.6-2-1.1c0,0-0.2,0-0.2-0.2c-6.5-4.3-13.4-6.5-20.7-6.5c-2,0-4,0.3-5.9,0.9
	c-1.8,0.6-3.5,1.5-5,2.7c-2.4,2-4.1,5-4.4,8.2c-0.2,0.8-0.2,1.5-0.2,2.3c0,1.4,0.5,2.7,1.2,4c1.1,1.8,2.9,3.5,5.3,5.3
	c0.8,0.6,1.5,1.1,2.4,1.7c1.4,0.9,2.9,1.7,4.3,2.6c1.5,0.9,3.2,1.8,4.7,2.7c3,1.7,5.9,3.3,9,5.2c5.6,3.5,10.3,6.8,13.7,10
	c0.2,0.2,0.3,0.3,0.6,0.5c7.8,7.5,11.7,16.3,11.7,26.6c0,7-1.7,13.2-5,19.2c-2,3.7-4.6,6.7-7.8,9.4c-6.1,5.3-13.8,8.7-21.9,9.4
	c-2,0.2-3.8,0.3-5.8,0.3c-12.9,0-24.9-3.3-35.9-10.2c-0.9-0.5-1.7-1.2-2.3-2c-1.1-1.2-1.5-2.9-1.5-4.7c0-0.9,0.2-1.7,0.5-2.6
	c0.2-0.6,0.5-1.4,0.9-2.1c0-0.2,0.2-0.2,0.2-0.3c1.4-2.4,2.6-4.7,4-7.2c0.5-0.9,1.2-1.8,2.1-2.4c1.2-0.8,2.6-1.2,4.3-1.2
	c1.7,0,3.5,0.6,5.2,1.8c6.5,4.3,13.4,6.5,20.7,6.5c2,0,4-0.3,5.9-0.9c1.8-0.6,3.5-1.5,5-2.7c2.4-2,4.1-5,4.4-8.2
	c0.2-0.8,0.2-1.5,0.2-2.3c0-1.5-0.5-3-1.2-4.3c-0.3-0.6-0.8-1.2-1.2-1.7c-0.8-0.8-1.5-1.5-2.4-2.3c-2.7-2.3-7-5-12.8-8.2
	c-0.3-0.2-0.6-0.3-0.8-0.5c-3-1.7-5.9-3.3-8.8-5.2c-5.9-3.7-10.6-7.2-14-10.5c-3.5-3.2-6.4-7.2-8.5-11.4c-2.1-4.6-3-9.4-3-14.5
	c0-9.9,3.2-18.4,9.6-25.6c7.8-8.5,18.1-12.8,30.7-12.8c12.8-0.2,25.3,3.5,36.1,10.2c2.3,1.4,3.5,3.3,3.7,5.9c0,0.3,0,0.5,0,0.8
	C863.1,178.5,862.7,180.2,861.8,181.8L861.8,181.8z"/>
<path style="fill-rule:evenodd;clip-rule:evenodd;fill:#097BB8;" d="M28.8,136.5c-13.8,0-22.1-1.4-24.6-4c-1.8-1.8-2.7-4.1-2.7-6.7
	l0,0c-0.3-10.2-0.6-20.4-0.9-30.4c-0.2-9.3-0.3-18-0.5-26.2c0-2.7,0-5.3,0-8.1c0-16.3,0.5-32.6,1.2-48.8c0-0.6,0-1.1,0.2-1.7
	c0-1.4,0.3-2.7,0.9-4c0.5-1.1,1.1-2,1.8-2.7c1.8-1.8,4-2.9,6.5-3c3.8-0.3,7.6-0.6,11.4-0.8C24.8,0,27.5,0,30.3,0
	C35.9,0,41.4,0.3,47,1.1c14,2,24.6,6.8,31.5,14.5c5.3,5.8,8.4,13.2,8.2,21.1c0,7.2-2.4,14.1-6.8,19.6c-0.2,0.2-0.2,0.3-0.3,0.3
	c-2.1,2.7-4.7,5.2-7.5,7.3c-1.8,1.4-3.7,2.6-5.6,3.7c2.7,1.5,5.3,3.3,7.8,5.3c2,1.7,3.8,3.5,5.3,5.5c2.6,3.3,4.6,7,5.8,11.1
	c0.9,2.9,1.4,6.1,1.4,9.1c0,7.6-2.9,15.1-8.1,20.7c-1.1,1.2-2.1,2.3-3.2,3.3c-4,3.7-8.7,6.5-13.8,8.4c-1.8,0.6-3.7,1.2-5.5,1.7
	C47.2,135.2,38,136.5,28.8,136.5z M28.4,116.1h2.4c1.7,0,3.5,0,5.2-0.2c1.4-0.2,2.6-0.3,4-0.5c2.1-0.3,4.3-0.9,6.2-1.5
	c2.1-0.6,4.1-1.5,5.9-2.4c1.5-0.8,3-1.8,4.3-2.9c1.2-1.1,2.3-2.1,3.2-3.5c1.5-2.1,2.4-4.7,2.4-7.5c0-4.1-1.7-7.9-4.7-10.8
	c-1.4-1.4-2.9-2.4-4.7-3.7c-0.2-0.2-0.3-0.2-0.5-0.3c-2.4-1.4-4.9-2.4-7.5-3.2c-2.4-0.8-5-1.2-7.9-1.7c-3-0.5-6.2-0.8-9.3-0.8
	C27.5,90.2,27.8,103.1,28.4,116.1z M33.8,20.5h-5.3c-0.6,12.5-0.9,24.9-1.1,37.6c10.6-0.3,19-2.3,24.8-5.6c1.7-0.9,3.3-2.1,4.7-3.5
	c1.8-1.8,3.2-3.7,4.1-5.8c0.6-1.7,1.1-3.5,1.1-5.3c0-3.7-1.5-7.2-4.4-9.6c-1.2-1.2-2.7-2.3-4.6-3.3c-1.1-0.6-2-1.1-3-1.5
	c-1.8-0.8-3.8-1.4-5.8-1.7C41.2,20.8,37.7,20.5,33.8,20.5z"/>
<path style="fill-rule:evenodd;clip-rule:evenodd;fill:#2E8E00;" d="M120,135.2h-8.7c-1.2,0-2.4-0.2-3.5-0.6c-1.2-0.5-2.3-1.2-3-2.1
	c-1.8-1.8-2.7-4.3-2.9-6.7l0,0c-0.8-16.3-1.2-32.7-1.2-49c0-0.5,0-1.1,0-1.5c0-18.6,0.5-40.2,1.4-64.7c0-1.4,0.3-2.6,0.8-4
	c0.5-1.1,1.1-2,2-2.9c1.7-1.8,4-2.7,6.4-2.7c0.2,0,0.2,0,0.3,0h8.7c1.2,0,2.3,0.2,3.3,0.6c1.2,0.5,2.3,1.1,3.2,2
	c1.7,1.7,2.6,3.8,2.6,6.2V10c0,0.8,0,1.7,0,2.4c0,3.5-0.3,9.3-0.5,17.2c-0.2,2.7-0.2,5.5-0.3,8.2c-0.3,8.7-0.5,19.3-0.5,31.8
	c0,13.5,0.3,26.9,0.8,40.5l17.5-0.2c2.3,0,4.1,0.9,5.8,2.6c1.5,1.5,2.4,3.7,2.4,5.9c0,0.2,0,0.5,0,0.6v6.2c0,1.4-0.3,2.6-0.8,3.8
	c-0.5,1.1-1.1,2-2,2.7c-1.8,1.8-4.3,2.7-6.7,2.9l0,0C136.9,134.9,128.4,135.2,120,135.2z"/>
<path style="fill-rule:evenodd;clip-rule:evenodd;fill:#321A81;" d="M537,23.7l-3.8,6.8c-1.4,2.4-3.3,3.7-5.9,3.8
	c-0.2,0-0.5,0-0.6,0c-1.1,0-2-0.2-2.9-0.6c-0.6-0.3-1.4-0.6-2-1.1c0,0-0.2,0-0.2-0.2c-6.5-4.3-13.4-6.5-20.7-6.5c-2,0-4,0.3-5.9,0.9
	c-1.8,0.6-3.5,1.5-5,2.7c-2.4,2-4.1,5-4.4,8.2c-0.2,0.8-0.2,1.5-0.2,2.3c0,1.4,0.5,2.7,1.2,4c1.1,1.8,2.9,3.5,5.3,5.3
	c0.8,0.6,1.5,1.1,2.4,1.7c1.4,0.9,2.9,1.7,4.3,2.6c1.5,0.9,3.2,1.8,4.7,2.7c3,1.7,5.9,3.3,9,5.2c5.6,3.5,10.3,6.8,13.7,10
	c0.2,0.2,0.3,0.3,0.6,0.5c7.8,7.5,11.7,16.3,11.7,26.6c0,7-1.7,13.2-5,19.2c-2,3.7-4.6,6.7-7.8,9.4c-6.1,5.3-13.8,8.7-21.9,9.4
	c-2,0.2-3.8,0.3-5.8,0.3c-12.9,0-24.9-3.3-35.9-10.2c-0.9-0.5-1.7-1.2-2.3-2c-1.1-1.2-1.5-2.9-1.5-4.7c0-0.9,0.2-1.7,0.5-2.6
	c0.2-0.6,0.5-1.4,0.9-2.1c0-0.2,0.2-0.2,0.2-0.3c1.4-2.4,2.6-4.7,4-7.2c0.5-0.9,1.2-1.8,2.1-2.4c1.2-0.8,2.6-1.2,4.3-1.2
	c1.7,0,3.5,0.6,5.2,1.8c6.5,4.3,13.4,6.5,20.7,6.5c2,0,4-0.3,5.9-0.9c1.8-0.6,3.5-1.5,5-2.7c2.4-2,4.1-5,4.4-8.2
	c0.2-0.8,0.2-1.5,0.2-2.3c0-1.5-0.5-3-1.2-4.3c-0.3-0.6-0.8-1.2-1.2-1.7c-0.8-0.8-1.5-1.5-2.4-2.3c-2.7-2.3-7-5-12.8-8.2
	c-0.3-0.2-0.6-0.3-0.8-0.5c-3-1.7-5.9-3.3-8.8-5.2c-5.9-3.7-10.6-7.2-14-10.5c-3.5-3.2-6.4-7.2-8.5-11.4c-2.1-4.6-3-9.4-3-14.5
	c0-9.9,3.2-18.4,9.6-25.6C476,6.1,486.4,1.8,499,1.8C511.8,1.7,524.2,5.3,535,12c2.3,1.4,3.5,3.3,3.7,5.9c0,0.3,0,0.5,0,0.8
	C538.4,20.4,537.9,22.1,537,23.7L537,23.7z"/>
<path style="fill-rule:evenodd;clip-rule:evenodd;fill:#321A81;" d="M234.6,135.4h-8.7c-2.4,0-4.9-0.9-6.7-2.7
	c-0.9-0.8-1.5-1.7-2-2.7c-0.3-0.8-0.6-1.5-0.6-2.3c-2.9,2-5.9,3.7-9,4.9c-4.3,1.7-8.4,2.7-12.6,2.7c-0.3,0-0.6,0-0.8,0
	c-2.7,0-5.3-0.2-8.1-0.8c-4.7-0.9-8.8-2.7-12-5.5c-1.8-1.7-3.3-3.5-4.7-5.6c-1.1-1.8-2.1-3.8-2.9-6.1c-0.5-1.1-0.8-2.1-1.1-3.2
	c-0.9-3-1.7-6.2-2.1-9.4c-1.2-6.8-1.8-15.4-2.1-25.4c-0.2-3.2-0.2-6.4-0.2-9.6c0-15.5,0.5-35.3,1.2-59.2c0-1.4,0.3-2.7,0.9-4
	c0.5-1.1,1.1-2,1.8-2.7c1.8-1.8,4-2.7,6.5-2.7h8.8c1.2,0,2.4,0.2,3.7,0.6c1.1,0.5,2.1,1.1,2.9,2c1.7,1.7,2.6,3.8,2.6,6.2V10v0.5
	c-0.9,19.3-1.4,38.5-1.4,57.8c0,4,0,7.9,0.2,11.9c0.3,10.8,1.2,18.6,2.6,23.4c0.3,0.9,0.6,1.8,0.9,2.6c2,4.3,5,6.5,9.3,6.5
	c1.7,0,3.3-0.3,4.9-1.1c2.6-1.1,5.5-2.9,8.5-5.6c0.9-0.8,1.8-1.7,2.7-2.4c0.3-11.1,0.6-22.5,0.6-33.9c0-19.5-0.5-38.8-1.4-58.3
	c0-0.3,0-0.6,0-0.9V10c0-2.3,0.9-4.6,2.6-6.1l0.2-0.2c1.8-1.7,4.1-2.6,6.5-2.6h8.7c1.4,0,2.9,0.3,4.1,0.9c0.9,0.5,1.8,1.1,2.4,1.8
	c1.8,1.8,2.7,4.3,2.7,6.7c0.6,16.9,0.9,32.4,1.2,46.4c0.2,6.1,0.2,12.2,0.2,18.3c0,16.4-0.5,33.2-1.4,50.4c0,1.4-0.3,2.7-0.9,4
	c-0.5,1.1-1.1,2-1.8,2.7C239.3,134.5,237.2,135.4,234.6,135.4z"/>
<path style="fill-rule:evenodd;clip-rule:evenodd;fill:#FF81A3;" d="M287.8,135.4H279c-1.4,0-2.6-0.3-3.8-0.8c-1.1-0.5-2-1.1-2.7-2
	c-1.8-1.8-2.7-4.3-2.7-6.7l0,0l-0.8-22.1l-7.3,0.2c-2.3,0-4.6-0.9-6.1-2.6c0,0,0,0-0.2-0.2c-1.7-1.8-2.6-4-2.6-6.7v-5
	c0-1.4,0.3-2.6,0.8-3.8c0.5-1.1,1.1-2,2-2.7c1.8-1.8,4.3-2.7,6.7-2.9l0,0l6.2-0.3V65.7c0-5.6,0.2-11.4,0.6-17
	c0.8-11.1,2.6-20.1,5.2-27.1c0.9-2.6,2.1-5.2,3.7-7.6c4.3-6.8,11.4-11.4,19.3-12.3c2.1-0.3,4.1-0.5,6.2-0.5
	c13.4,0,24.2,5.3,32.7,15.8c0.2,0.2,0.3,0.3,0.5,0.5c1.2,1.5,2,3.5,2,5.6c0,1.4-0.3,2.6-1.1,3.8c-0.5,0.8-0.9,1.4-1.5,2.1
	c-0.2,0.2-0.3,0.3-0.3,0.3l-5.2,5c-0.6,0.6-1.4,1.2-2.3,1.5c-0.8,0.3-1.7,0.5-2.6,0.5c-1.5,0-3-0.5-4.3-1.2
	c-0.8-0.5-1.5-1.1-2.1-1.8c-0.2-0.2-0.3-0.3-0.3-0.3c-1.1-1.2-2.3-2.4-3.5-3.5c-3-2.4-6.1-3.7-9.1-3.7c-3.2,0-5.5,1.7-7,5.2
	c0,0,0,0,0,0.2c-0.5,1.1-0.8,2-1.1,3c-0.3,1.1-0.6,2.3-0.8,3.5c-0.2,0.5-0.2,0.9-0.3,1.5c-0.6,4-0.9,10-1.1,18.1c0,2.9,0,5.6,0,8.5
	v14c5.6,0,11.3,0.3,16.9,0.6c1.4,0,2.6,0.3,3.8,0.9c1.1,0.5,2,1.2,2.9,2c1.7,1.7,2.7,4,2.7,6.4v0.2v5c0,2.6-0.8,4.9-2.4,6.5
	c-1.5,1.7-3.7,2.6-5.8,2.6h-0.2l-17.3-0.2l0.3,23.9c0,1.7-0.6,3.3-1.7,4.6c-0.3,0.3-0.5,0.6-0.8,0.9c-1.4,1.4-3,2.1-5,2.3
	C288.7,135.2,288.3,135.4,287.8,135.4z"/>
<path style="fill-rule:evenodd;clip-rule:evenodd;fill:#2E8E00;" d="M442.2,51.7h-4.1c-0.9,0-1.8-0.3-2.4-0.8
	c-0.2-0.2-0.5-0.3-0.6-0.5c-1.4-1.4-2.3-8.5-3-21.5c-0.2-2.4-0.2-4.9-0.3-7.3c-0.2-6.7-0.3-11.7-0.3-15.1c0-1.4,0.5-2.4,1.2-3.2
	c0.8-0.8,1.8-1.4,3-1.4h0.2h8.5c0.6,0,1.1,0.2,1.7,0.3c0.6,0.2,1.1,0.5,1.5,0.9c0.8,0.6,1.1,1.5,1.2,2.6c0,0.2,0,0.5,0,0.6
	c0,0.2,0,0.3,0,0.3c0,1.1-0.2,3.8-0.5,8.2c0,0.3,0,0.6,0,0.9c-0.3,4.6-0.8,12.5-1.2,23.6c-0.2,2.6-0.2,5.2-0.3,7.8
	c0,1.2-0.5,2.3-1.2,3c0,0,0,0-0.2,0.2C444.7,51.3,443.5,51.7,442.2,51.7z"/>
<path style="fill-rule:evenodd;clip-rule:evenodd;fill:#097BB8;" d="M369.5,135.4h-8.8c-1.4,0-2.6-0.3-3.8-0.8c-1.1-0.5-2-1.1-2.7-2
	c-1.8-1.8-2.7-4.3-2.7-6.7l0,0l-0.8-22.1l-7.3,0.2c-2.3,0-4.6-0.9-6.1-2.6c0,0,0,0-0.2-0.2c-1.7-1.8-2.6-4-2.6-6.7v-5
	c0-1.4,0.3-2.6,0.8-3.8c0.5-1.1,1.1-2,2-2.7c1.8-1.8,4.3-2.7,6.7-2.9l0,0l6.2-0.3V65.7c0-5.6,0.2-11.4,0.6-17
	c0.8-11.1,2.6-20.1,5.2-27.1c0.9-2.6,2.1-5.2,3.7-7.6C363.9,7.2,371,2.6,379,1.7c2.1-0.3,4.1-0.5,6.2-0.5c13.4,0,24.2,5.3,32.7,15.8
	c0.2,0.2,0.3,0.3,0.5,0.5c1.2,1.5,2,3.5,2,5.6c0,1.4-0.3,2.6-1.1,3.8c-0.5,0.8-0.9,1.4-1.5,2.1c-0.2,0.2-0.3,0.3-0.3,0.3l-5.2,5
	c-0.6,0.6-1.4,1.2-2.3,1.5c-0.8,0.3-1.7,0.5-2.6,0.5c-1.5,0-3-0.5-4.3-1.2c-0.8-0.5-1.5-1.1-2.1-1.8c-0.2-0.2-0.3-0.3-0.3-0.3
	c-1.1-1.2-2.3-2.4-3.5-3.5c-3-2.4-6.1-3.7-9.1-3.7c-3.2,0-5.5,1.7-7,5.2c0,0,0,0,0,0.2c-0.5,1.1-0.8,2-1.1,3
	c-0.3,1.1-0.6,2.3-0.8,3.5c-0.2,0.5-0.2,0.9-0.3,1.5c-0.6,4-0.9,10-1.1,18.1c0,2.9,0,5.6,0,8.5v14c5.6,0,11.3,0.3,16.9,0.6
	c1.4,0,2.6,0.3,3.8,0.9c1.1,0.5,2,1.2,2.9,2c1.7,1.7,2.7,4,2.7,6.4v0.2v5c0,2.6-0.8,4.9-2.4,6.5c-1.5,1.7-3.7,2.6-5.8,2.6h-0.2
	l-17.3-0.2l0.3,23.9c0,1.7-0.6,3.3-1.7,4.6c-0.3,0.3-0.5,0.6-0.8,0.9c-1.4,1.4-3,2.1-5,2.3C370.4,135.2,370,135.4,369.5,135.4z"/>
</svg>
