<?xml version="1.0" encoding="utf-8"?>
<!-- Generator: Adobe Illustrator 26.4.1, SVG Export Plug-In . SVG Version: 6.00 Build 0)  -->
<svg version="1.1" id="Layer_1" xmlns="http://www.w3.org/2000/svg" xmlns:xlink="http://www.w3.org/1999/xlink" x="0px" y="0px"
	 viewBox="0 0 183.4 107" style="enable-background:new 0 0 183.4 107;" xml:space="preserve">
<g id="svgGroup">
	
		<path id="_x30_" vector-effect="non-scaling-stroke" style="fill-rule:evenodd;clip-rule:evenodd;stroke:#000000;stroke-width:0.7087;stroke-linecap:round;" d="
		M31.2,98.7c-9.1,0-14.5-0.9-16.2-2.6c-1.2-1.2-1.8-2.7-1.8-4.4c0,0,0,0,0,0c-0.2-6.7-0.4-13.4-0.6-20c-0.1-6.1-0.2-11.8-0.3-17.2
		c0-1.8,0-3.5,0-5.3c0-10.7,0.3-21.4,0.8-32.1c0-0.4,0-0.7,0.1-1.1c0-0.9,0.2-1.8,0.6-2.6c0.3-0.7,0.7-1.3,1.2-1.8
		c1.2-1.2,2.6-1.9,4.3-2c2.5-0.2,5-0.4,7.5-0.5C28.7,9,30.5,9,32.3,9c3.7,0,7.3,0.2,11,0.7c9.2,1.3,16.2,4.5,20.7,9.5
		c3.5,3.8,5.5,8.7,5.4,13.9c0,4.7-1.6,9.3-4.5,12.9c-0.1,0.1-0.1,0.2-0.2,0.2c-1.4,1.8-3.1,3.4-4.9,4.8c-1.2,0.9-2.4,1.7-3.7,2.4
		c1.8,1,3.5,2.2,5.1,3.5c1.3,1.1,2.5,2.3,3.5,3.6c1.7,2.2,3,4.6,3.8,7.3c0.6,1.9,0.9,4,0.9,6c0,5-1.9,9.9-5.3,13.6
		c-0.7,0.8-1.4,1.5-2.1,2.2c-2.6,2.4-5.7,4.3-9.1,5.5c-1.2,0.4-2.4,0.8-3.6,1.1C43.4,97.8,37.3,98.6,31.2,98.7z M31,85.2h1.6
		c1.1,0,2.3,0,3.4-0.1c0.9-0.1,1.7-0.2,2.6-0.3c1.4-0.2,2.8-0.6,4.1-1c1.4-0.4,2.7-1,3.9-1.6c1-0.5,2-1.2,2.8-1.9
		c0.8-0.7,1.5-1.4,2.1-2.3c1-1.4,1.6-3.1,1.6-4.9c0-2.7-1.1-5.2-3.1-7.1c-0.9-0.9-1.9-1.6-3.1-2.4c-0.1-0.1-0.2-0.1-0.3-0.2
		c-1.6-0.9-3.2-1.6-4.9-2.1c-1.6-0.5-3.3-0.8-5.2-1.1c-2-0.3-4.1-0.5-6.1-0.5C30.5,68.3,30.7,76.8,31,85.2z M34.6,22.5H31
		c-0.4,8.2-0.6,16.4-0.7,24.7c7-0.2,12.5-1.5,16.3-3.7c1.1-0.6,2.2-1.4,3.1-2.3c1.2-1.2,2.1-2.4,2.7-3.8c0.4-1.1,0.7-2.3,0.7-3.5
		c0-2.4-1-4.7-2.9-6.3c-0.8-0.8-1.8-1.5-3-2.2c-0.7-0.4-1.3-0.7-2-1c-1.2-0.5-2.5-0.9-3.8-1.1C39.4,22.7,37.1,22.5,34.6,22.5z"/>
	
		<path id="_x31_" vector-effect="non-scaling-stroke" style="fill-rule:evenodd;clip-rule:evenodd;stroke:#000000;stroke-width:0.7087;stroke-linecap:round;" d="
		M84.2,9.7h5.7c0.7,0,1.4,0.1,2.1,0.3c0.8,0.3,1.6,0.7,2.2,1.3c1,1,1.6,2.4,1.7,3.8c0,0.1,0,0.2,0,0.3c0,0.4,0,0.7,0,1.1
		c0,1.6-0.1,4.4-0.2,8.4c0,0.9-0.1,1.8-0.1,2.7c-0.1,1.8-0.1,3.7-0.1,5.5c-0.1,5.9-0.2,13.1-0.2,21.6c0,8.9,0.2,17.8,0.5,26.7
		l21.2-0.2c1.4,0,2.8,0.5,3.8,1.6c0,0,0.1,0.1,0.1,0.1c0.9,1,1.5,2.2,1.6,3.5c0,0.2,0,0.5,0,0.7v4.1c0,0.8-0.2,1.7-0.5,2.5
		c-0.3,0.7-0.7,1.3-1.3,1.8c-1.1,1.1-2.6,1.8-4.2,1.9c-0.1,0-0.1,0-0.2,0c-5.8,0.3-11.6,0.5-17.3,0.5c-4.9,0-9.8,0-14.7-0.1
		c-0.9,0-1.8-0.2-2.6-0.6c-0.6-0.3-1.2-0.7-1.7-1.2c-1.2-1.2-1.8-2.8-1.9-4.4c0,0,0,0,0,0c-0.5-10.9-0.8-21.9-0.9-32.8
		c0-0.7,0-1.4,0-2.1c0-7.7,0.1-16.5,0.4-26.5c0.1-4.8,0.3-9.5,0.5-14.3c0-1.7,0.7-3.2,1.8-4.4C81,10.4,82.5,9.7,84.2,9.7
		C84.1,9.7,84.2,9.7,84.2,9.7z"/>
	
		<path id="_x32_" vector-effect="non-scaling-stroke" style="fill-rule:evenodd;clip-rule:evenodd;stroke:#000000;stroke-width:0.7087;stroke-linecap:round;" d="
		M133,42.6l-4.5,0.1c-1.5,0-3-0.6-4-1.6c0,0-0.1-0.1-0.1-0.1c-1.1-1.2-1.7-2.6-1.7-4.3v-3.3c0-0.8,0.2-1.7,0.5-2.5
		c0.3-0.7,0.7-1.3,1.3-1.8c1.1-1.1,2.5-1.7,4-1.8c0.2,0,0.3,0,0.5,0l4.4-0.2l0.4-10.9c0.1-1.7,0.7-3.2,1.9-4.4
		c1.1-1.2,2.6-1.8,4.2-1.8c0,0,0.1,0,0.1,0h5.7c0.8,0,1.6,0.1,2.3,0.4c0.8,0.3,1.4,0.7,2,1.3c0.5,0.5,1,1.1,1.3,1.8
		c0.3,0.7,0.5,1.4,0.4,2.2c0,1.6-0.1,4.5-0.2,8.5c0,0.9-0.1,1.9-0.1,2.8c3.5,0,7.1,0.2,10.6,0.4c0.9,0,1.8,0.2,2.6,0.6
		c0.7,0.3,1.3,0.7,1.8,1.2c1.2,1.2,1.8,2.6,1.8,4.3v3.3c0,0.8-0.1,1.6-0.4,2.3c-0.3,0.8-0.7,1.4-1.3,2c-0.5,0.5-1.1,1-1.8,1.3
		c-0.7,0.3-1.4,0.5-2.2,0.4l-11.6-0.2c-0.1,3.8-0.1,7.6-0.1,11.5c0,10.4,0.5,17.6,1.4,21.6c0.1,0.4,0.2,0.9,0.3,1.3
		c0.2,0.7,0.5,1.4,0.8,2c0.4,0.7,0.8,1.3,1.2,1.7c0.8,0.8,2,1.3,3.1,1.2c1.3,0,2.6-0.3,3.7-1c0.8-0.4,1.7-1,2.5-1.8
		c0.7-0.6,1.4-1.3,2-2c0.4-0.5,0.9-0.9,1.4-1.2c0.7-0.5,1.4-0.8,2.1-0.9c0.3-0.1,0.7-0.1,1-0.1c1.2,0,2.3,0.4,3.1,1.3
		c0,0,0.1,0.1,0.1,0.1l3.4,3.3c0.4,0.4,0.7,0.8,1.1,1.3c0.4,0.5,0.6,1.1,0.8,1.7c0.1,0.4,0.1,0.8,0.1,1.1c0,1.3-0.4,2.6-1.3,3.7
		c-2.3,3.1-5.3,5.6-8.6,7.5c-3.8,2.1-8.1,3.2-12.9,3.2c-0.1,0-0.2,0-0.2,0c-2.3,0-4.5-0.3-6.7-0.8c-4.1-1.1-7.6-3.7-10-7.2
		c-1.3-2.1-2.4-4.3-3.1-6.7c-1.6-4.8-2.6-10.9-3-18.5c-0.2-3.3-0.3-6.6-0.3-10c0-1.9,0-3.9,0-5.8C132.9,46.9,132.9,44.8,133,42.6z"
		/>
</g>
</svg>
