<?xml version="1.0" encoding="utf-8"?>
<!-- Generator: Adobe Illustrator 26.4.1, SVG Export Plug-In . SVG Version: 6.00 Build 0)  -->
<svg version="1.1" id="Layer_1" xmlns="http://www.w3.org/2000/svg" xmlns:xlink="http://www.w3.org/1999/xlink" x="0px" y="0px"
	 viewBox="0 0 1170.1 104.7" style="enable-background:new 0 0 1170.1 104.7;" xml:space="preserve">
<g id="svgGroup">
	
		<path id="_x30_" vector-effect="non-scaling-stroke" style="fill-rule:evenodd;clip-rule:evenodd;stroke:#000000;stroke-width:0.7087;stroke-linecap:round;" d="
		M26.7,98.8c-9.1,0-14.5-0.9-16.2-2.6c-1.2-1.2-1.8-2.7-1.8-4.4l0,0c-0.2-6.7-0.4-13.4-0.6-20C8,65.7,7.9,60,7.8,54.6
		c0-1.8,0-3.5,0-5.3c0-10.7,0.3-21.4,0.8-32.1c0-0.4,0-0.7,0.1-1.1c0-0.9,0.2-1.8,0.6-2.6c0.3-0.7,0.7-1.3,1.2-1.8
		c1.2-1.2,2.6-1.9,4.3-2c2.5-0.2,5-0.4,7.5-0.5c1.8-0.1,3.6-0.1,5.4-0.1c3.7,0,7.3,0.2,11,0.7c9.2,1.3,16.2,4.5,20.7,9.5
		c3.5,3.8,5.5,8.7,5.4,13.9c0,4.7-1.6,9.3-4.5,12.9c-0.1,0.1-0.1,0.2-0.2,0.2c-1.4,1.8-3.1,3.4-4.9,4.8c-1.2,0.9-2.4,1.7-3.7,2.4
		c1.8,1,3.5,2.2,5.1,3.5c1.3,1.1,2.5,2.3,3.5,3.6c1.7,2.2,3,4.6,3.8,7.3c0.6,1.9,0.9,4,0.9,6c0,5-1.9,9.9-5.3,13.6
		c-0.7,0.8-1.4,1.5-2.1,2.2c-2.6,2.4-5.7,4.3-9.1,5.5c-1.2,0.4-2.4,0.8-3.6,1.1C38.8,98,32.8,98.8,26.7,98.8z M26.5,85.4h1.6
		c1.1,0,2.3,0,3.4-0.1c0.9-0.1,1.7-0.2,2.6-0.3c1.4-0.2,2.8-0.6,4.1-1c1.4-0.4,2.7-1,3.9-1.6c1-0.5,2-1.2,2.8-1.9
		c0.8-0.7,1.5-1.4,2.1-2.3c1-1.4,1.6-3.1,1.6-4.9c0-2.7-1.1-5.2-3.1-7.1c-0.9-0.9-1.9-1.6-3.1-2.4c-0.1-0.1-0.2-0.1-0.3-0.2
		c-1.6-0.9-3.2-1.6-4.9-2.1c-1.6-0.5-3.3-0.8-5.2-1.1c-2-0.3-4.1-0.5-6.1-0.5C25.9,68.4,26.1,76.9,26.5,85.4z M30,22.6h-3.5
		c-0.4,8.2-0.6,16.4-0.7,24.7c7-0.2,12.5-1.5,16.3-3.7c1.1-0.6,2.2-1.4,3.1-2.3c1.2-1.2,2.1-2.4,2.7-3.8c0.4-1.1,0.7-2.3,0.7-3.5
		c0-2.4-1-4.7-2.9-6.3c-0.8-0.8-1.8-1.5-3-2.2c-0.7-0.4-1.3-0.7-2-1c-1.2-0.5-2.5-0.9-3.8-1.1C34.9,22.8,32.6,22.6,30,22.6z"/>
	
		<path id="_x31_" vector-effect="non-scaling-stroke" style="fill-rule:evenodd;clip-rule:evenodd;stroke:#000000;stroke-width:0.7087;stroke-linecap:round;" d="
		M86.7,98H81c-0.8,0-1.6-0.1-2.3-0.4c-0.8-0.3-1.5-0.8-2-1.4c-1.2-1.2-1.8-2.8-1.9-4.4l0,0C74.3,81.1,74,70.3,74,59.6
		c0-0.3,0-0.7,0-1c0-12.2,0.3-26.4,0.9-42.5c0-0.9,0.2-1.7,0.5-2.6c0.3-0.7,0.7-1.3,1.3-1.9c1.1-1.2,2.6-1.8,4.2-1.8
		c0.1,0,0.1,0,0.2,0h5.7c0.8,0,1.5,0.1,2.2,0.4c0.8,0.3,1.5,0.7,2.1,1.3c1.1,1.1,1.7,2.5,1.7,4.1v0.1c0,0.5,0,1.1,0,1.6
		c0,2.3-0.2,6.1-0.3,11.3c-0.1,1.8-0.1,3.6-0.2,5.4C92.1,39.7,92,46.7,92,54.9c0,8.9,0.2,17.7,0.5,26.6l11.5-0.1
		c1.5,0,2.7,0.6,3.8,1.7c1,1,1.6,2.4,1.6,3.9c0,0.1,0,0.3,0,0.4v4.1c0,0.9-0.2,1.7-0.5,2.5c-0.3,0.7-0.7,1.3-1.3,1.8
		c-1.2,1.2-2.8,1.8-4.4,1.9l0,0C97.8,97.8,92.2,98,86.7,98z"/>
	
		<path id="_x32_" vector-effect="non-scaling-stroke" style="fill-rule:evenodd;clip-rule:evenodd;stroke:#000000;stroke-width:0.7087;stroke-linecap:round;" d="
		M162,98.1h-5.7c-1.6,0-3.2-0.6-4.4-1.8c-0.6-0.5-1-1.1-1.3-1.8c-0.2-0.5-0.4-1-0.4-1.5c-1.9,1.3-3.9,2.4-5.9,3.2
		c-2.8,1.1-5.5,1.8-8.3,1.8c-0.2,0-0.4,0-0.5,0c-1.8,0-3.5-0.1-5.3-0.5c-3.1-0.6-5.8-1.8-7.9-3.6c-1.2-1.1-2.2-2.3-3.1-3.7
		c-0.7-1.2-1.4-2.5-1.9-4c-0.3-0.7-0.5-1.4-0.7-2.1c-0.6-2-1.1-4.1-1.4-6.2c-0.8-4.5-1.2-10.1-1.4-16.7c-0.1-2.1-0.1-4.2-0.1-6.3
		c0-10.2,0.3-23.2,0.8-38.9c0-0.9,0.2-1.8,0.6-2.6c0.3-0.7,0.7-1.3,1.2-1.8c1.2-1.2,2.6-1.8,4.3-1.8h5.8c0.8,0,1.6,0.1,2.4,0.4
		c0.7,0.3,1.4,0.7,1.9,1.3c1.1,1.1,1.7,2.5,1.7,4.1v0.1V16c-0.6,12.7-0.9,25.3-0.9,38c0,2.6,0,5.2,0.1,7.8
		c0.2,7.1,0.8,12.2,1.7,15.4c0.2,0.6,0.4,1.2,0.6,1.7c1.3,2.8,3.3,4.3,6.1,4.3c1.1,0,2.2-0.2,3.2-0.7c1.7-0.7,3.6-1.9,5.6-3.7
		c0.6-0.5,1.2-1.1,1.8-1.6c0.2-7.3,0.4-14.8,0.4-22.3c0-12.8-0.3-25.5-0.9-38.3c0-0.2,0-0.4,0-0.6v-0.3c0-1.5,0.6-3,1.7-4l0.1-0.1
		c1.2-1.1,2.7-1.7,4.3-1.7h5.7c0.9,0,1.9,0.2,2.7,0.6c0.6,0.3,1.2,0.7,1.6,1.2c1.2,1.2,1.8,2.8,1.8,4.4c0.4,11.1,0.6,21.3,0.8,30.5
		c0.1,4,0.1,8,0.1,12c0,10.8-0.3,21.8-0.9,33.1c0,0.9-0.2,1.8-0.6,2.6c-0.3,0.7-0.7,1.3-1.2,1.8C165.1,97.5,163.7,98.1,162,98.1z"/>
	
		<path id="_x33_" vector-effect="non-scaling-stroke" style="fill-rule:evenodd;clip-rule:evenodd;stroke:#000000;stroke-width:0.7087;stroke-linecap:round;" d="
		M197,98.1h-5.8c-0.9,0-1.7-0.2-2.5-0.5c-0.7-0.3-1.3-0.7-1.8-1.3c-1.2-1.2-1.8-2.8-1.8-4.4l0,0l-0.5-14.5l-4.8,0.1
		c-1.5,0-3-0.6-4-1.7c0,0,0,0-0.1-0.1c-1.1-1.2-1.7-2.6-1.7-4.4V68c0-0.9,0.2-1.7,0.5-2.5c0.3-0.7,0.7-1.3,1.3-1.8
		c1.2-1.2,2.8-1.8,4.4-1.9l0,0l4.1-0.2v-9.3c0-3.7,0.1-7.5,0.4-11.2c0.5-7.3,1.7-13.2,3.4-17.8c0.6-1.7,1.4-3.4,2.4-5
		c2.8-4.5,7.5-7.5,12.7-8.1c1.4-0.2,2.7-0.3,4.1-0.3c8.8,0,15.9,3.5,21.5,10.4c0.1,0.1,0.2,0.2,0.3,0.3c0.8,1,1.3,2.3,1.3,3.7
		c0,0.9-0.2,1.7-0.7,2.5c-0.3,0.5-0.6,0.9-1,1.4c-0.1,0.1-0.2,0.2-0.2,0.2l-3.4,3.3c-0.4,0.4-0.9,0.8-1.5,1
		c-0.5,0.2-1.1,0.3-1.7,0.3c-1,0-2-0.3-2.8-0.8c-0.5-0.3-1-0.7-1.4-1.2c-0.1-0.1-0.2-0.2-0.2-0.2c-0.7-0.8-1.5-1.6-2.3-2.3
		c-2-1.6-4-2.4-6-2.4c-2.1,0-3.6,1.1-4.6,3.4c0,0,0,0,0,0.1c-0.3,0.7-0.5,1.3-0.7,2c-0.2,0.7-0.4,1.5-0.5,2.3
		c-0.1,0.3-0.1,0.6-0.2,1c-0.4,2.6-0.6,6.6-0.7,11.9c0,1.9,0,3.7,0,5.6v9.2c3.7,0,7.4,0.2,11.1,0.4c0.9,0,1.7,0.2,2.5,0.6
		c0.7,0.3,1.3,0.8,1.9,1.3c1.1,1.1,1.8,2.6,1.8,4.2v0.1v3.3c0,1.7-0.5,3.2-1.6,4.3c-1,1.1-2.4,1.7-3.8,1.7h-0.1l-11.4-0.1l0.2,15.7
		c0,1.1-0.4,2.2-1.1,3c-0.2,0.2-0.3,0.4-0.5,0.6c-0.9,0.9-2,1.4-3.3,1.5C197.6,98,197.3,98.1,197,98.1z"/>
	
		<path id="_x34_" vector-effect="non-scaling-stroke" style="fill-rule:evenodd;clip-rule:evenodd;stroke:#000000;stroke-width:0.7087;stroke-linecap:round;" d="
		M250.7,98.1h-5.8c-0.9,0-1.7-0.2-2.5-0.5c-0.7-0.3-1.3-0.7-1.8-1.3c-1.2-1.2-1.8-2.8-1.8-4.4l0,0l-0.5-14.5l-4.8,0.1
		c-1.5,0-3-0.6-4-1.7c0,0,0,0-0.1-0.1c-1.1-1.2-1.7-2.6-1.7-4.4V68c0-0.9,0.2-1.7,0.5-2.5c0.3-0.7,0.7-1.3,1.3-1.8
		c1.2-1.2,2.8-1.8,4.4-1.9l0,0l4.1-0.2v-9.3c0-3.7,0.1-7.5,0.4-11.2c0.5-7.3,1.7-13.2,3.4-17.8c0.6-1.7,1.4-3.4,2.4-5
		c2.8-4.5,7.5-7.5,12.7-8.1c1.4-0.2,2.7-0.3,4.1-0.3c8.8,0,15.9,3.5,21.5,10.4c0.1,0.1,0.2,0.2,0.3,0.3c0.8,1,1.3,2.3,1.3,3.7
		c0,0.9-0.2,1.7-0.7,2.5c-0.3,0.5-0.6,0.9-1,1.4c-0.1,0.1-0.2,0.2-0.2,0.2l-3.4,3.3c-0.4,0.4-0.9,0.8-1.5,1
		c-0.5,0.2-1.1,0.3-1.7,0.3c-1,0-2-0.3-2.8-0.8c-0.5-0.3-1-0.7-1.4-1.2c-0.1-0.1-0.2-0.2-0.2-0.2c-0.7-0.8-1.5-1.6-2.3-2.3
		c-2-1.6-4-2.4-6-2.4c-2.1,0-3.6,1.1-4.6,3.4c0,0,0,0,0,0.1c-0.3,0.7-0.5,1.3-0.7,2c-0.2,0.7-0.4,1.5-0.5,2.3
		c-0.1,0.3-0.1,0.6-0.2,1c-0.4,2.6-0.6,6.6-0.7,11.9c0,1.9,0,3.7,0,5.6v9.2c3.7,0,7.4,0.2,11.1,0.4c0.9,0,1.7,0.2,2.5,0.6
		c0.7,0.3,1.3,0.8,1.9,1.3c1.1,1.1,1.8,2.6,1.8,4.2v0.1v3.3c0,1.7-0.5,3.2-1.6,4.3c-1,1.1-2.4,1.7-3.8,1.7H268l-11.4-0.1l0.2,15.7
		c0,1.1-0.4,2.2-1.1,3c-0.2,0.2-0.3,0.4-0.5,0.6c-0.9,0.9-2,1.4-3.3,1.5C251.3,98,251,98.1,250.7,98.1z"/>
	
		<path id="_x35_" vector-effect="non-scaling-stroke" style="fill-rule:evenodd;clip-rule:evenodd;stroke:#000000;stroke-width:0.7087;stroke-linecap:round;" d="
		M298.5,43.1h-2.7c-0.6,0-1.2-0.2-1.6-0.5c-0.1-0.1-0.3-0.2-0.4-0.3c-0.9-0.9-1.5-5.6-2-14.1c-0.1-1.6-0.1-3.2-0.2-4.8
		c-0.1-4.4-0.2-7.7-0.2-9.9c0-0.9,0.3-1.6,0.8-2.1s1.2-0.9,2-0.9h0.1h5.6c0.4,0,0.7,0.1,1.1,0.2c0.4,0.1,0.7,0.3,1,0.6
		c0.5,0.4,0.7,1,0.8,1.7c0,0.1,0,0.3,0,0.4c0,0.1,0,0.2,0,0.2c0,0.7-0.1,2.5-0.3,5.4c0,0.2,0,0.4,0,0.6c-0.2,3-0.5,8.2-0.8,15.5
		c-0.1,1.7-0.1,3.4-0.2,5.1c0,0.8-0.3,1.5-0.8,2c0,0,0,0-0.1,0.1C300.1,42.8,299.3,43.1,298.5,43.1z"/>
	
		<path id="_x36_" vector-effect="non-scaling-stroke" style="fill-rule:evenodd;clip-rule:evenodd;stroke:#000000;stroke-width:0.7087;stroke-linecap:round;" d="
		M360.8,24.7l-2.5,4.5c-0.9,1.6-2.2,2.4-3.9,2.5c-0.1,0-0.3,0-0.4,0c-0.7,0-1.3-0.1-1.9-0.4c-0.4-0.2-0.9-0.4-1.3-0.7
		c0,0-0.1,0-0.1-0.1c-4.3-2.8-8.8-4.3-13.6-4.3c-1.3,0-2.6,0.2-3.9,0.6c-1.2,0.4-2.3,1-3.3,1.8c-1.6,1.3-2.7,3.3-2.9,5.4
		c-0.1,0.5-0.1,1-0.1,1.5c0,0.9,0.3,1.8,0.8,2.6c0.7,1.2,1.9,2.3,3.5,3.5c0.5,0.4,1,0.7,1.6,1.1c0.9,0.6,1.9,1.1,2.8,1.7
		c1,0.6,2.1,1.2,3.1,1.8c2,1.1,3.9,2.2,5.9,3.4c3.7,2.3,6.8,4.5,9,6.6c0.1,0.1,0.2,0.2,0.4,0.3c5.1,4.9,7.7,10.7,7.7,17.5
		c0,4.6-1.1,8.7-3.3,12.6c-1.3,2.4-3,4.4-5.1,6.2c-4,3.5-9.1,5.7-14.4,6.2c-1.3,0.1-2.5,0.2-3.8,0.2c-8.5,0-16.4-2.2-23.6-6.7
		c-0.6-0.3-1.1-0.8-1.5-1.3c-0.7-0.8-1-1.9-1-3.1c0-0.6,0.1-1.1,0.3-1.7c0.1-0.4,0.3-0.9,0.6-1.4c0-0.1,0.1-0.1,0.1-0.2
		c0.9-1.6,1.7-3.1,2.6-4.7c0.3-0.6,0.8-1.2,1.4-1.6c0.8-0.5,1.7-0.8,2.8-0.8c1.1,0,2.3,0.4,3.4,1.2c4.3,2.8,8.8,4.3,13.6,4.3
		c1.3,0,2.6-0.2,3.9-0.6c1.2-0.4,2.3-1,3.3-1.8c1.6-1.3,2.7-3.3,2.9-5.4c0.1-0.5,0.1-1,0.1-1.5c0-1-0.3-2-0.8-2.8
		c-0.2-0.4-0.5-0.8-0.8-1.1c-0.5-0.5-1-1-1.6-1.5c-1.8-1.5-4.6-3.3-8.4-5.4c-0.2-0.1-0.4-0.2-0.5-0.3c-2-1.1-3.9-2.2-5.8-3.4
		c-3.9-2.4-7-4.7-9.2-6.9c-2.3-2.1-4.2-4.7-5.6-7.5c-1.4-3-2-6.2-2-9.5c0-6.5,2.1-12.1,6.3-16.8c5.1-5.6,11.9-8.4,20.2-8.4
		c8.4-0.1,16.6,2.3,23.7,6.7c1.5,0.9,2.3,2.2,2.4,3.9c0,0.2,0,0.3,0,0.5C361.7,22.5,361.4,23.6,360.8,24.7L360.8,24.7z"/>
	
		<path id="_x38_" vector-effect="non-scaling-stroke" style="fill-rule:evenodd;clip-rule:evenodd;stroke:#000000;stroke-width:0.7087;stroke-linecap:round;" d="
		M399.5,9.9h5.7c0.7,0,1.4,0.1,2.1,0.3c0.8,0.3,1.6,0.7,2.2,1.3c1,1,1.6,2.4,1.7,3.8c0,0.1,0,0.2,0,0.3c0,0.4,0,0.7,0,1.1
		c0,1.6-0.1,4.4-0.2,8.4c0,0.9-0.1,1.8-0.1,2.7c-0.1,1.8-0.1,3.7-0.1,5.5c-0.1,5.9-0.2,13.1-0.2,21.6c0,8.9,0.2,17.8,0.5,26.7
		l21.2-0.2c1.4,0,2.8,0.5,3.8,1.6l0.1,0.1c0.9,1,1.5,2.2,1.6,3.5c0,0.2,0,0.5,0,0.7v4.1c0,0.8-0.2,1.7-0.5,2.5
		c-0.3,0.7-0.7,1.3-1.3,1.8c-1.1,1.1-2.6,1.8-4.2,1.9c-0.1,0-0.1,0-0.2,0c-5.8,0.3-11.6,0.5-17.3,0.5c-4.9,0-9.8,0-14.7-0.1
		c-0.9,0-1.8-0.2-2.6-0.6c-0.6-0.3-1.2-0.7-1.7-1.2c-1.2-1.2-1.8-2.8-1.9-4.4l0,0c-0.5-10.9-0.8-21.9-0.9-32.8c0-0.7,0-1.4,0-2.1
		c0-7.7,0.1-16.5,0.4-26.5c0.1-4.8,0.3-9.5,0.5-14.3c0-1.7,0.7-3.2,1.8-4.4c1.1-1.2,2.6-1.8,4.2-1.8C399.4,9.9,399.4,9.9,399.5,9.9z
		"/>
	
		<path id="_x39_" vector-effect="non-scaling-stroke" style="fill-rule:evenodd;clip-rule:evenodd;stroke:#000000;stroke-width:0.7087;stroke-linecap:round;" d="
		M454.9,98.1h-5.8c-0.9,0-1.7-0.2-2.5-0.5c-0.7-0.3-1.3-0.7-1.8-1.3c-1.2-1.2-1.8-2.8-1.9-4.4l0,0c-0.2-6.4-0.4-12.8-0.5-19.2
		c-0.1-3.6-0.1-7.2-0.1-10.8c0-4.5,0-9.1,0.1-13.6c0.1-4.2,0.2-8.4,0.4-12.7c0-0.9,0.2-1.8,0.6-2.6c0.3-0.7,0.7-1.3,1.2-1.8
		c1.2-1.2,2.6-1.8,4.3-1.8h5.8c0.8,0,1.6,0.1,2.4,0.4c0.7,0.3,1.4,0.7,1.9,1.3c1.1,1.1,1.7,2.5,1.7,4.1v0.1c0,0.1,0,0.1,0,0.2
		c0,0.6-0.1,2.3-0.3,5.3c0,0.5-0.1,1.1-0.1,1.6c-0.1,1.3-0.1,2.6-0.1,3.9c-0.1,4.3-0.2,9.8-0.2,16.7c0,0.1,0,0.2,0,0.2
		c0,9.6,0.2,19.1,0.7,28.7v0.3c0,1.5-0.6,3-1.7,4.1c0,0,0,0-0.1,0.1C458.1,97.5,456.6,98.1,454.9,98.1
		C455,98.1,454.9,98.1,454.9,98.1z M456.1,26.8h-6.6c-1.7,0-3.2-0.6-4.3-1.8c-1.1-1.1-1.8-2.6-1.8-4.2v-0.1l0.1-4.6
		c0-1.7,0.7-3.2,1.8-4.4c1.1-1.2,2.6-1.8,4.2-1.8h0.1h6.5c1,0,2,0.2,2.9,0.7c0.5,0.3,1.1,0.7,1.5,1.1c0.7,0.7,1.3,1.5,1.5,2.5
		c0.2,0.6,0.3,1.2,0.3,1.8l-0.1,4.6c0,1.7-0.7,3.2-1.8,4.4c-1.1,1.2-2.6,1.8-4.2,1.8C456.2,26.8,456.2,26.8,456.1,26.8z"/>
	
		<path id="_x31_0" vector-effect="non-scaling-stroke" style="fill-rule:evenodd;clip-rule:evenodd;stroke:#000000;stroke-width:0.7087;stroke-linecap:round;" d="
		M477.6,42.8l-4.5,0.1c-1.5,0-3-0.6-4-1.6l-0.1-0.1c-1.1-1.2-1.7-2.6-1.7-4.3v-3.3c0-0.8,0.2-1.7,0.5-2.5c0.3-0.7,0.7-1.3,1.3-1.8
		c1.1-1.1,2.5-1.7,4-1.8c0.2,0,0.3,0,0.5,0l4.4-0.2l0.4-10.9c0.1-1.7,0.7-3.2,1.9-4.4c1.1-1.2,2.6-1.8,4.2-1.8h0.1h5.7
		c0.8,0,1.6,0.1,2.3,0.4c0.8,0.3,1.4,0.7,2,1.3c0.5,0.5,1,1.1,1.3,1.8s0.5,1.4,0.4,2.2c0,1.6-0.1,4.5-0.2,8.5c0,0.9-0.1,1.9-0.1,2.8
		c3.5,0,7.1,0.2,10.6,0.4c0.9,0,1.8,0.2,2.6,0.6c0.7,0.3,1.3,0.7,1.8,1.2c1.2,1.2,1.8,2.6,1.8,4.3V37c0,0.8-0.1,1.6-0.4,2.3
		c-0.3,0.8-0.7,1.4-1.3,2c-0.5,0.5-1.1,1-1.8,1.3c-0.7,0.3-1.4,0.5-2.2,0.4l-11.6-0.2c-0.1,3.8-0.1,7.6-0.1,11.5
		c0,10.4,0.5,17.6,1.4,21.6c0.1,0.4,0.2,0.9,0.3,1.3c0.2,0.7,0.5,1.4,0.8,2c0.4,0.7,0.8,1.3,1.2,1.7c0.8,0.8,2,1.3,3.1,1.2
		c1.3,0,2.6-0.3,3.7-1c0.8-0.4,1.7-1,2.5-1.8c0.7-0.6,1.4-1.3,2-2c0.4-0.5,0.9-0.9,1.4-1.2c0.7-0.5,1.4-0.8,2.1-0.9
		c0.3-0.1,0.7-0.1,1-0.1c1.2,0,2.3,0.4,3.1,1.3l0.1,0.1l3.4,3.3c0.4,0.4,0.7,0.8,1.1,1.3c0.4,0.5,0.6,1.1,0.8,1.7
		c0.1,0.4,0.1,0.8,0.1,1.1c0,1.3-0.4,2.6-1.3,3.7c-2.3,3.1-5.3,5.6-8.6,7.5c-3.8,2.1-8.1,3.2-12.9,3.2c-0.1,0-0.2,0-0.2,0
		c-2.3,0-4.5-0.3-6.7-0.8c-4.1-1.1-7.6-3.7-10-7.2c-1.3-2.1-2.4-4.3-3.1-6.7c-1.6-4.8-2.6-10.9-3-18.5c-0.2-3.3-0.3-6.6-0.3-10
		c0-1.9,0-3.9,0-5.8C477.5,47,477.6,44.9,477.6,42.8z"/>
	
		<path id="_x31_1" vector-effect="non-scaling-stroke" style="fill-rule:evenodd;clip-rule:evenodd;stroke:#000000;stroke-width:0.7087;stroke-linecap:round;" d="
		M533.4,42.8l-4.5,0.1c-1.5,0-3-0.6-4-1.6l-0.1-0.1c-1.1-1.2-1.7-2.6-1.7-4.3v-3.3c0-0.8,0.2-1.7,0.5-2.5c0.3-0.7,0.7-1.3,1.3-1.8
		c1.1-1.1,2.5-1.7,4-1.8c0.2,0,0.3,0,0.5,0l4.4-0.2l0.4-10.9c0.1-1.7,0.7-3.2,1.9-4.4c1.1-1.2,2.6-1.8,4.2-1.8h0.1h5.7
		c0.8,0,1.6,0.1,2.3,0.4c0.8,0.3,1.4,0.7,2,1.3c0.5,0.5,1,1.1,1.3,1.8s0.5,1.4,0.4,2.2c0,1.6-0.1,4.5-0.2,8.5c0,0.9-0.1,1.9-0.1,2.8
		c3.5,0,7.1,0.2,10.6,0.4c0.9,0,1.8,0.2,2.6,0.6c0.7,0.3,1.3,0.7,1.8,1.2c1.2,1.2,1.8,2.6,1.8,4.3V37c0,0.8-0.1,1.6-0.4,2.3
		c-0.3,0.8-0.7,1.4-1.3,2c-0.5,0.5-1.1,1-1.8,1.3s-1.4,0.5-2.2,0.4l-11.6-0.2c-0.1,3.8-0.1,7.6-0.1,11.5c0,10.4,0.5,17.6,1.4,21.6
		c0.1,0.4,0.2,0.9,0.3,1.3c0.2,0.7,0.5,1.4,0.8,2c0.4,0.7,0.8,1.3,1.2,1.7c0.8,0.8,2,1.3,3.1,1.2c1.3,0,2.6-0.3,3.7-1
		c0.8-0.4,1.7-1,2.5-1.8c0.7-0.6,1.4-1.3,2-2c0.4-0.5,0.9-0.9,1.4-1.2c0.7-0.5,1.4-0.8,2.1-0.9c0.3-0.1,0.7-0.1,1-0.1
		c1.2,0,2.3,0.4,3.1,1.3l0.1,0.1l3.4,3.3c0.4,0.4,0.7,0.8,1.1,1.3c0.4,0.5,0.6,1.1,0.8,1.7c0.1,0.4,0.1,0.8,0.1,1.1
		c0,1.3-0.4,2.6-1.3,3.7c-2.3,3.1-5.3,5.6-8.6,7.5c-3.8,2.1-8.1,3.2-12.9,3.2c-0.1,0-0.2,0-0.2,0c-2.3,0-4.5-0.3-6.7-0.8
		c-4.1-1.1-7.6-3.7-10-7.2c-1.3-2.1-2.4-4.3-3.1-6.7c-1.6-4.8-2.6-10.9-3-18.5c-0.2-3.3-0.3-6.6-0.3-10c0-1.9,0-3.9,0-5.8
		C533.3,47,533.3,44.9,533.4,42.8z"/>
	
		<path id="_x31_2" vector-effect="non-scaling-stroke" style="fill-rule:evenodd;clip-rule:evenodd;stroke:#000000;stroke-width:0.7087;stroke-linecap:round;" d="
		M596.6,98h-5.7c-0.8,0-1.6-0.1-2.3-0.4c-0.8-0.3-1.5-0.8-2-1.4c-1.2-1.2-1.8-2.8-1.9-4.4l0,0c-0.5-10.7-0.8-21.4-0.8-32.1
		c0-0.3,0-0.7,0-1c0-12.2,0.3-26.4,0.9-42.5c0-0.9,0.2-1.7,0.5-2.6c0.3-0.7,0.7-1.3,1.3-1.9c1.1-1.2,2.6-1.8,4.2-1.8
		c0.1,0,0.1,0,0.2,0h5.7c0.8,0,1.5,0.1,2.2,0.4c0.8,0.3,1.5,0.7,2.1,1.3c1.1,1.1,1.7,2.5,1.7,4.1v0.1c0,0.5,0,1.1,0,1.6
		c0,2.3-0.2,6.1-0.3,11.3c-0.1,1.8-0.1,3.6-0.2,5.4c-0.1,5.8-0.2,12.8-0.2,20.9c0,8.9,0.2,17.7,0.5,26.6l11.5-0.1
		c1.5,0,2.7,0.6,3.8,1.7c1,1,1.6,2.4,1.6,3.9c0,0.1,0,0.3,0,0.4v4.1c0,0.9-0.2,1.7-0.5,2.5c-0.3,0.7-0.7,1.3-1.3,1.8
		c-1.2,1.2-2.8,1.8-4.4,1.9l0,0C607.6,97.8,602.1,98,596.6,98z"/>
	
		<path id="_x31_3" vector-effect="non-scaling-stroke" style="fill-rule:evenodd;clip-rule:evenodd;stroke:#000000;stroke-width:0.7087;stroke-linecap:round;" d="
		M641.2,64.7h-3.1c0.2,1.4,0.5,2.7,0.8,4.1c0.3,1.3,0.7,2.6,1.1,3.7c0.1,0.3,0.2,0.5,0.3,0.8c0.6,1.5,1.4,2.9,2.3,4.2
		c2.2,3,5.8,4.7,9.6,4.5c4.1,0,8.2-1.5,12.5-4.6c1.1-0.8,2.2-1.2,3.4-1.2c0.7,0,1.4,0.1,2,0.4c0.8,0.3,1.4,0.9,1.9,1.6
		c0.1,0.2,0.2,0.3,0.3,0.5l2.5,4.5c0.6,1.1,0.9,2.2,0.9,3.2c0,0.8-0.2,1.5-0.5,2.2s-0.8,1.3-1.5,1.8c-0.2,0.1-0.3,0.2-0.5,0.3
		c-7.1,4.4-15.3,6.8-23.6,6.7c-3.2,0-6.5-0.5-9.5-1.6c-4.3-1.6-8-4.5-10.7-8.2c-2.4-3.2-4.2-6.8-5.4-10.6
		c-2.2-6.4-3.2-14.3-3.2-23.6l0,0c0-4.3,0.2-8.6,0.8-12.9c1.3-9.5,4.1-16.9,8.4-22.2c0.4-0.5,0.9-1.1,1.4-1.6
		c4.8-4.9,10.9-7.4,18.3-7.4c1.9,0,3.8,0.1,5.7,0.5c2.3,0.4,4.3,1,6.2,1.9c0.3,0.1,0.6,0.3,0.8,0.4c4.1,2.2,7.5,5.5,9.6,9.6
		c1.3,2.5,2.2,5.3,2.6,8.1c0.2,1.4,0.3,2.8,0.3,4.2c0,3.9-0.8,7.9-2.3,11.5c-0.1,0.3-0.2,0.5-0.3,0.8c-1.6,3.5-3.8,6.6-6.6,9.2
		c-0.5,0.5-1.1,1-1.7,1.5c-4.2,3.5-9.3,5.8-14.8,6.8C646.6,64.5,643.9,64.7,641.2,64.7z M642,50.9c1,0,2.1-0.1,3.1-0.2
		c0.9-0.1,1.9-0.3,2.8-0.6c1.4-0.4,2.9-1,4.2-1.7c1.9-1.1,3.5-2.4,4.7-4c1.3-1.7,2.2-3.6,2.8-5.7c0.3-1.2,0.5-2.5,0.5-3.8
		c0-1.2-0.2-2.5-0.5-3.7c-0.3-1-0.7-2-1.3-2.8c-1.1-1.7-2.9-2.9-5-3.1c-0.4-0.1-0.9-0.1-1.3-0.1c-4.7-0.1-9,2.7-10.8,7.1
		c-2.2,4.2-3.4,10.3-3.6,18.3c1.1,0.1,2.2,0.2,3.4,0.3C641.3,50.9,641.7,50.9,642,50.9z"/>
	
		<path id="_x31_5" vector-effect="non-scaling-stroke" style="fill-rule:evenodd;clip-rule:evenodd;stroke:#000000;stroke-width:0.7087;stroke-linecap:round;" d="
		M738.5,98.1h-5.7c-0.9,0-1.9-0.2-2.7-0.6c-0.6-0.3-1.2-0.7-1.6-1.2c-1.2-1.2-1.8-2.8-1.8-4.4c-0.4-12.7-0.6-25.3-0.6-38
		c0-9.5,0.1-19,0.3-28.4c-1.2,0-2.3,0-3.5,0c-2.2,0-4.2,0-5.8,0c-0.7,0-1.4,0-2.1,0c-0.8,0-1.7-0.1-2.4-0.5
		c-0.7-0.3-1.4-0.8-1.9-1.3c-1.2-1.1-1.8-2.7-1.8-4.3l0,0v-3.1c0-0.9,0.2-1.7,0.5-2.5c0.3-0.7,0.7-1.3,1.3-1.8
		c1.2-1.2,2.8-1.8,4.4-1.9l0,0c2.7-0.1,5.4-0.2,8.1-0.3c2.8-0.1,5.7-0.1,8.7-0.1c1,0,2.1,0,3.1,0c3.3,0,6.6,0,9.9,0.1
		c3.1,0.1,6,0.1,8.8,0.2c0.4,0,0.8,0,1.2,0c0.9,0,1.8,0.2,2.6,0.6c0.7,0.3,1.3,0.7,1.8,1.2c1.2,1.2,1.8,2.6,1.8,4.3v3.1
		c0,1-0.2,2-0.7,2.9c-0.3,0.5-0.7,1.1-1.1,1.5c-0.7,0.7-1.5,1.3-2.5,1.5c-0.6,0.2-1.2,0.3-1.8,0.3l-10.6-0.1
		c-0.4,10.7-0.5,21.4-0.5,32.1c0,11.5,0.3,23,0.8,34.4v0.3c0,1.5-0.6,3-1.7,4l-0.1,0.1C741.6,97.5,740.1,98.1,738.5,98.1z"/>
	
		<path id="_x31_6" vector-effect="non-scaling-stroke" style="fill-rule:evenodd;clip-rule:evenodd;stroke:#000000;stroke-width:0.7087;stroke-linecap:round;" d="
		M815.6,98.1h-5.7c-0.9,0-1.9-0.2-2.7-0.6c-0.6-0.3-1.2-0.7-1.6-1.2c-1.2-1.2-1.8-2.8-1.8-4.4c-0.1-3.7-0.3-7.4-0.4-11.1
		c-0.1-3.5-0.2-7-0.2-10.5c-3-0.1-6-0.1-9-0.1c-3.2,0-6.3,0-9.5,0.1c0.2,7.2,0.4,14.4,0.7,21.7v0.3c0,1.5-0.6,3-1.7,4l-0.1,0.1
		c-1.2,1.1-2.7,1.7-4.3,1.7h-5.7c-0.9,0-1.9-0.2-2.7-0.6c-0.6-0.3-1.2-0.7-1.6-1.2c-1.2-1.2-1.8-2.8-1.8-4.4
		c-0.2-6.7-0.4-13.4-0.6-20c-0.1-6.1-0.2-11.8-0.3-17.2c0-1.8,0-3.5,0-5.3c0-10.7,0.3-21.4,0.8-32.1c0-0.4,0-0.7,0.1-1.1
		c0-0.9,0.2-1.8,0.6-2.6c0.3-0.7,0.7-1.3,1.2-1.8c1.2-1.2,2.6-1.8,4.3-1.8h5.7c1.6,0,3.2,0.6,4.3,1.7c0.7,0.6,1.2,1.5,1.5,2.4
		c0.2,0.6,0.3,1.2,0.3,1.8v0.3c-0.4,9.3-0.7,18.6-0.8,27.9c0,3.2-0.1,6.5-0.1,9.7c3.2-0.1,6.5-0.1,9.7-0.1c2.9,0,5.8,0,8.7,0.1
		c0-6.6,0.1-13.1,0.2-19.7c0.1-6,0.3-11.9,0.6-17.9c0-0.9,0.2-1.8,0.6-2.6c0.3-0.7,0.7-1.3,1.2-1.8c1.2-1.2,2.6-1.8,4.3-1.8h5.7
		c1.6,0,3.2,0.6,4.3,1.7c0.7,0.6,1.2,1.5,1.5,2.4c0.2,0.6,0.3,1.2,0.3,1.8v0.3c-0.6,12-0.9,24.3-0.9,36.9c0,12.2,0.3,24.3,0.8,36.4
		c0,0.8,0.1,1.7,0.1,2.5v0.3c0,1.5-0.6,3-1.7,4l-0.1,0.1C818.8,97.5,817.2,98.1,815.6,98.1z"/>
	
		<path id="_x31_7" vector-effect="non-scaling-stroke" style="fill-rule:evenodd;clip-rule:evenodd;stroke:#000000;stroke-width:0.7087;stroke-linecap:round;" d="
		M845.3,98.1h-5.8c-0.9,0-1.7-0.2-2.5-0.5c-0.7-0.3-1.3-0.7-1.8-1.3c-1.2-1.2-1.8-2.8-1.9-4.4l0,0c-0.2-6.4-0.4-12.8-0.5-19.2
		c-0.1-3.6-0.1-7.2-0.1-10.8c0-4.5,0-9.1,0.1-13.6c0.1-4.2,0.2-8.4,0.4-12.7c0-0.9,0.2-1.8,0.6-2.6c0.3-0.7,0.7-1.3,1.2-1.8
		c1.2-1.2,2.6-1.8,4.3-1.8h5.8c0.8,0,1.6,0.1,2.4,0.4c0.7,0.3,1.4,0.7,1.9,1.3c1.1,1.1,1.7,2.5,1.7,4.1v0.1c0,0.1,0,0.1,0,0.2
		c0,0.6-0.1,2.3-0.3,5.3c0,0.5-0.1,1.1-0.1,1.6c-0.1,1.3-0.1,2.6-0.1,3.9c-0.1,4.3-0.2,9.8-0.2,16.7c0,0.1,0,0.2,0,0.2
		c0,9.6,0.2,19.1,0.7,28.7v0.3c0,1.5-0.6,3-1.7,4.1c0,0,0,0-0.1,0.1C848.5,97.5,847,98.1,845.3,98.1
		C845.4,98.1,845.4,98.1,845.3,98.1z M846.6,26.8H840c-1.7,0-3.2-0.6-4.3-1.8c-1.1-1.1-1.8-2.6-1.8-4.2v-0.1l0.1-4.6
		c0-1.7,0.7-3.2,1.8-4.4s2.6-1.8,4.2-1.8h0.1h6.5c1,0,2,0.2,2.9,0.7c0.5,0.3,1.1,0.7,1.5,1.1c0.7,0.7,1.3,1.5,1.5,2.5
		c0.2,0.6,0.3,1.2,0.3,1.8l-0.1,4.6c0,1.7-0.7,3.2-1.8,4.4C849.8,26.2,848.3,26.8,846.6,26.8L846.6,26.8z"/>
	
		<path id="_x31_8" vector-effect="non-scaling-stroke" style="fill-rule:evenodd;clip-rule:evenodd;stroke:#000000;stroke-width:0.7087;stroke-linecap:round;" d="
		M911.1,98.1h-5.7c-1.6,0-3.2-0.6-4.3-1.7c-0.7-0.6-1.2-1.5-1.5-2.4c-0.2-0.6-0.3-1.2-0.3-1.8v-0.3c0.6-12.6,0.9-25.3,0.9-37.9
		c0-2,0-4-0.1-6.1c-0.1-4.2-0.3-7.7-0.5-10.7c-0.1-1.1-0.3-2.2-0.5-3.3c-0.4-2.4-1-4.3-1.8-5.7c-1.1-2.1-2.8-3.3-5-3.5
		c-0.2,0-0.5,0-0.7,0c-3,0-6.5,2-10.6,6c-0.2,7.3-0.4,14.8-0.4,22.3c0,12.2,0.3,24.3,0.8,36.4c0,0.8,0.1,1.7,0.1,2.5v0.3
		c0,1.5-0.6,3-1.7,4l-0.1,0.1c-1.2,1.1-2.7,1.7-4.3,1.7h-5.7c-0.9,0-1.7-0.2-2.5-0.5c-0.7-0.3-1.3-0.7-1.8-1.3
		c-1.2-1.2-1.8-2.8-1.8-4.4l0,0c-0.4-11.3-0.6-21.5-0.8-30.8c-0.1-4-0.1-8-0.1-12c0-10.7,0.3-21.6,0.8-32.8c0-0.9,0.2-1.8,0.6-2.6
		c0.3-0.7,0.7-1.3,1.2-1.8c1.2-1.2,2.6-1.8,4.3-1.8h5.7c1.6,0,3.2,0.6,4.4,1.8c1,0.9,1.6,2.1,1.8,3.4c1.3-0.9,2.6-1.7,4-2.4
		c3.3-1.8,7-2.7,10.8-2.7c4.2,0,7.8,0.8,10.6,2.4c0.9,0.5,1.7,1.1,2.5,1.7c2.3,2,4.1,4.9,5.4,8.7c0.5,1.6,1,3.3,1.3,5
		c0.4,2.1,0.8,4.2,1,6.3c0.6,4.7,0.9,10.3,0.9,16.7c0,0.4,0,0.9,0,1.3c0,6.3-0.1,12.6-0.2,18.8c-0.1,7-0.3,13.9-0.6,20.9
		c0,1.7-0.7,3.2-1.8,4.4c-1.1,1.2-2.6,1.8-4.2,1.8C911.1,98.1,911.1,98.1,911.1,98.1z"/>
	
		<path id="_x31_9" vector-effect="non-scaling-stroke" style="fill-rule:evenodd;clip-rule:evenodd;stroke:#000000;stroke-width:0.7087;stroke-linecap:round;" d="
		M974.7,98.1H969c-1.6,0-3.2-0.6-4.4-1.8c-1.2-1.2-1.8-2.6-1.8-4.3c0-2.4-0.1-4.8-0.4-7.2c-0.6-5.3-1.8-9.6-3.7-12.8
		c-2.3-4.2-6.3-7.2-11-8.4c-0.3-0.1-0.6-0.2-1-0.2c0.5,9.3,0.8,18.9,0.8,28.7c0,0.7-0.1,1.5-0.4,2.2c-0.3,0.8-0.8,1.5-1.4,2.1
		c-1.2,1.1-2.7,1.7-4.3,1.7h-5.7c-0.9,0-1.9-0.2-2.7-0.6c-0.6-0.3-1.2-0.7-1.6-1.2c-1.2-1.2-1.8-2.8-1.8-4.4
		c-0.4-10.8-0.6-21.6-0.7-32.5c0-3.5,0-6.9,0-10.4c0-10.7,0.3-21.6,0.8-32.8c0-0.9,0.2-1.8,0.6-2.6c0.3-0.7,0.7-1.3,1.2-1.8
		c1.2-1.2,2.6-1.8,4.3-1.8h5.7c0.7,0,1.4,0.1,2.1,0.3c0.8,0.3,1.6,0.7,2.2,1.3c0.6,0.5,1,1.1,1.3,1.8c0.3,0.6,0.4,1.3,0.4,2
		s0,1.5,0,2.2c-0.1,4.3-0.3,13.3-0.6,27c4.8-0.9,9.1-3.9,11.7-8.1c0.2-0.3,0.4-0.6,0.5-0.9c0.9-1.6,1.6-3.3,2.1-5.1
		c1-3.3,1.5-7.4,1.6-12.2c0-0.8,0-1.6,0-2.4c0-1.6,0.6-3.1,1.7-4.2l0.1-0.1c1.2-1.2,2.8-1.8,4.4-1.8h5.7c1.6,0,3.2,0.6,4.4,1.8l0,0
		c1.2,1.2,1.8,2.7,1.8,4.4c0,5.8-0.9,11.6-2.8,17.1c-0.5,1.5-1.1,3-1.8,4.4c-2.7,5.6-6.6,10.5-11.6,14.3c-1,0.7-2,1.5-3,2.1
		c6.7,4.4,11.6,10,14.8,16.9c2,4.4,3.3,9,3.9,13.8c0.3,2.4,0.4,4.8,0.4,7.2c0,0.9-0.2,1.7-0.5,2.6c-0.3,0.7-0.7,1.3-1.3,1.9
		C977.9,97.4,976.4,98.1,974.7,98.1L974.7,98.1z"/>
	
		<path id="_x32_0" vector-effect="non-scaling-stroke" style="fill-rule:evenodd;clip-rule:evenodd;stroke:#000000;stroke-width:0.7087;stroke-linecap:round;" d="
		M1006.6,64.7h-3.1c0.2,1.4,0.5,2.7,0.8,4.1c0.3,1.3,0.7,2.6,1.1,3.7c0.1,0.3,0.2,0.5,0.3,0.8c0.6,1.5,1.4,2.9,2.3,4.2
		c2.2,3,5.8,4.7,9.6,4.5c4.1,0,8.2-1.5,12.5-4.6c1.1-0.8,2.2-1.2,3.4-1.2c0.7,0,1.4,0.1,2,0.4c0.8,0.3,1.4,0.9,1.9,1.6
		c0.1,0.2,0.2,0.3,0.3,0.5l2.5,4.5c0.6,1.1,0.9,2.2,0.9,3.2c0,0.8-0.2,1.5-0.5,2.2s-0.8,1.3-1.5,1.8c-0.2,0.1-0.3,0.2-0.5,0.3
		c-7.1,4.4-15.3,6.8-23.6,6.7c-3.2,0-6.5-0.5-9.5-1.6c-4.3-1.6-8-4.5-10.7-8.2c-2.4-3.2-4.2-6.8-5.4-10.6
		c-2.1-6.4-3.2-14.3-3.2-23.6l0,0c0-4.3,0.2-8.6,0.8-12.9c1.3-9.5,4.1-16.9,8.4-22.2c0.4-0.5,0.9-1.1,1.4-1.6
		c4.8-4.9,10.9-7.4,18.3-7.4c1.9,0,3.8,0.1,5.7,0.5c2.3,0.4,4.3,1,6.2,1.9c0.3,0.1,0.6,0.3,0.8,0.4c4.1,2.2,7.5,5.5,9.6,9.6
		c1.3,2.5,2.2,5.3,2.6,8.1c0.2,1.4,0.3,2.8,0.3,4.2c0,3.9-0.8,7.9-2.3,11.5c-0.1,0.3-0.2,0.5-0.3,0.8c-1.6,3.5-3.8,6.6-6.6,9.2
		c-0.5,0.5-1.1,1-1.7,1.5c-4.2,3.5-9.3,5.8-14.8,6.8C1011.9,64.5,1009.3,64.7,1006.6,64.7z M1007.4,50.9c1,0,2.1-0.1,3.1-0.2
		c0.9-0.1,1.9-0.3,2.8-0.6c1.4-0.4,2.9-1,4.2-1.7c1.9-1.1,3.5-2.4,4.7-4c1.3-1.7,2.2-3.6,2.8-5.7c0.3-1.2,0.5-2.5,0.5-3.8
		c0-1.2-0.2-2.5-0.5-3.7c-0.3-1-0.7-2-1.3-2.8c-1.1-1.7-2.9-2.9-5-3.1c-0.4-0.1-0.9-0.1-1.3-0.1c-4.7-0.1-9,2.7-10.8,7.1
		c-2.2,4.2-3.4,10.3-3.6,18.3c1.1,0.1,2.2,0.2,3.4,0.3C1006.7,50.9,1007,50.9,1007.4,50.9z"/>
	
		<path id="_x32_1" vector-effect="non-scaling-stroke" style="fill-rule:evenodd;clip-rule:evenodd;stroke:#000000;stroke-width:0.7087;stroke-linecap:round;" d="
		M1095.6,98.1h-5.7c-1.6,0-3.2-0.6-4.4-1.8c-1.2-1.2-1.8-2.6-1.8-4.3v-2.7c0-4.2-0.8-7.6-2.3-10.1c-1.4-2.3-3.5-4-6.1-4.9
		c-1.6-0.5-3.2-0.9-4.9-1.1c-1.2-0.2-2.5-0.3-3.7-0.3c0.4,6.4,0.6,12.8,0.6,19.2c0,0.7-0.1,1.5-0.4,2.2c-0.3,0.8-0.8,1.5-1.4,2.1
		c-1.2,1.1-2.7,1.7-4.3,1.7h-5.7c-0.9,0-1.7-0.2-2.5-0.5c-0.7-0.3-1.3-0.7-1.8-1.3c-1.2-1.2-1.8-2.8-1.8-4.4l0,0
		c-0.4-11.3-0.6-21.5-0.8-30.8c-0.1-4-0.1-8-0.1-12c0-10.7,0.3-21.6,0.8-32.8c0-0.8,0.2-1.6,0.5-2.3c0.3-0.8,0.8-1.5,1.3-2
		c1.1-1.1,2.5-1.9,4.1-2c2.3-0.3,4.7-0.5,7-0.6c1.7-0.1,3.4-0.1,5-0.1c4.3,0,8.6,0.5,12.8,1.6c1.2,0.3,2.5,0.6,3.7,1
		c5.8,1.7,10.6,4.9,14.3,9.7c1.8,2.3,3.3,4.8,4.3,7.5c0.9,2.5,1.4,5.2,1.4,7.9c0,5.9-1.5,11.4-4.6,16.7c-2.1,3.6-4.9,6.8-8.1,9.4
		c-1,0.8-2.1,1.6-3.1,2.3c3.3,1.8,6.2,4.3,8.5,7.2c3.2,4,5,8.8,5.4,14.4c0.1,0.8,0.1,1.7,0.1,2.5l-0.1,2.6c0,0.9-0.2,1.7-0.5,2.6
		c-0.3,0.7-0.7,1.3-1.3,1.9C1098.8,97.5,1097.4,98.1,1095.6,98.1z M1066.5,52.9l0.1,6.8c1.8-0.3,3.5-0.8,5.2-1.4
		c1.4-0.5,2.8-1.2,4.2-2c3.6-2.1,6.3-4.7,8.1-7.8c0.9-1.4,1.5-3,2-4.5s0.7-3.1,0.7-4.7c0-3.1-1-6.2-2.9-8.6
		c-0.2-0.2-0.3-0.4-0.5-0.7c-1.3-1.6-3-3-4.9-4c-1.3-0.7-2.8-1.4-4.5-1.9c-0.2-0.1-0.5-0.1-0.7-0.2c-1.1-0.3-2.2-0.5-3.3-0.7
		c-0.9-0.1-1.9-0.2-2.9-0.2C1066.7,32.9,1066.5,42.9,1066.5,52.9z"/>
	
		<path id="_x32_2" vector-effect="non-scaling-stroke" style="fill-rule:evenodd;clip-rule:evenodd;stroke:#000000;stroke-width:0.7087;stroke-linecap:round;" d="
		M1160,24.2l-2.5,4.5c-0.9,1.6-2.2,2.4-3.9,2.5c-0.1,0-0.3,0-0.4,0c-0.7,0-1.3-0.1-1.9-0.4c-0.4-0.2-0.9-0.4-1.3-0.7
		c0,0-0.1,0-0.1-0.1c-4.3-2.8-8.8-4.3-13.6-4.3c-1.3,0-2.6,0.2-3.9,0.6c-1.2,0.4-2.3,1-3.3,1.8c-1.6,1.3-2.7,3.3-2.9,5.4
		c-0.1,0.5-0.1,1-0.1,1.5c0,0.9,0.3,1.8,0.8,2.6c0.7,1.2,1.9,2.3,3.5,3.5c0.5,0.4,1,0.7,1.6,1.1c0.9,0.6,1.9,1.1,2.8,1.7
		c1,0.6,2.1,1.2,3.1,1.8c2,1.1,3.9,2.2,5.9,3.4c3.7,2.3,6.8,4.5,9,6.6c0.1,0.1,0.2,0.2,0.4,0.3c5.1,4.9,7.7,10.7,7.7,17.5
		c0,4.6-1.1,8.7-3.3,12.6c-1.3,2.4-3,4.4-5.1,6.2c-4,3.5-9.1,5.7-14.4,6.2c-1.3,0.1-2.5,0.2-3.8,0.2c-8.5,0-16.4-2.2-23.6-6.7
		c-0.6-0.3-1.1-0.8-1.5-1.3c-0.7-0.8-1-1.9-1-3.1c0-0.6,0.1-1.1,0.3-1.7c0.1-0.4,0.3-0.9,0.6-1.4c0-0.1,0.1-0.1,0.1-0.2
		c0.9-1.6,1.7-3.1,2.6-4.7c0.3-0.6,0.8-1.2,1.4-1.6c0.8-0.5,1.7-0.8,2.8-0.8c1.1,0,2.3,0.4,3.4,1.2c4.3,2.8,8.8,4.3,13.6,4.3
		c1.3,0,2.6-0.2,3.9-0.6c1.2-0.4,2.3-1,3.3-1.8c1.6-1.3,2.7-3.3,2.9-5.4c0.1-0.5,0.1-1,0.1-1.5c0-1-0.3-2-0.8-2.8
		c-0.2-0.4-0.5-0.8-0.8-1.1c-0.5-0.5-1-1-1.6-1.5c-1.8-1.5-4.6-3.3-8.4-5.4c-0.2-0.1-0.4-0.2-0.5-0.3c-2-1.1-3.9-2.2-5.8-3.4
		c-3.9-2.4-7-4.7-9.2-6.9c-2.3-2.1-4.2-4.7-5.6-7.5c-1.4-3-2-6.2-2-9.5c0-6.5,2.1-12.1,6.3-16.8c5.1-5.6,11.9-8.4,20.2-8.4
		c8.4-0.1,16.6,2.3,23.7,6.7c1.5,0.9,2.3,2.2,2.4,3.9c0,0.2,0,0.3,0,0.5C1160.9,22,1160.6,23.1,1160,24.2L1160,24.2z"/>
</g>
</svg>
