<?xml version="1.0" encoding="utf-8"?>
<!-- Generator: Adobe Illustrator 26.4.1, SVG Export Plug-In . SVG Version: 6.00 Build 0)  -->
<svg version="1.1" id="Layer_1" xmlns="http://www.w3.org/2000/svg" xmlns:xlink="http://www.w3.org/1999/xlink" x="0px" y="0px"
	 viewBox="0 0 834 834" style="enable-background:new 0 0 834 834;" xml:space="preserve">
<circle style="fill:#321A81;stroke:#FFFFFF;stroke-miterlimit:10;" cx="417" cy="417" r="416.5"/>
<path style="fill:#FFFFFF;" d="M417.5,193c-8.1,0-16.1,1.4-23.7,4.1L113.3,298.4c-9.5,3.5-15.8,12.5-15.8,22.6s6.3,19.1,15.8,22.6
	l57.9,20.9c-16.4,25.8-25.7,56.3-25.7,88.4V481c0,28.4-10.8,57.7-22.3,80.8c-6.5,13-13.9,25.8-22.5,37.6c-3.2,4.3-4.1,9.9-2.3,15
	c1.8,5.1,6,8.9,11.2,10.2l64,16c4.2,1.1,8.7,0.3,12.4-2s6.3-6.1,7.1-10.4c8.6-42.8,4.3-81.2-2.1-108.7c-3.2-14.2-7.5-28.7-13.5-42
	v-24.6c0-30.2,10.2-58.7,27.9-81.5c12.9-15.5,29.6-28,49.2-35.7l157-61.7c8.2-3.2,17.5,0.8,20.7,9c3.2,8.2-0.8,17.5-9,20.7
	l-157,61.7c-12.4,4.9-23.3,12.4-32.2,21.6l159.6,57.6c7.6,2.7,15.6,4.1,23.7,4.1s16.1-1.4,23.7-4.1l280.6-101
	c9.5-3.4,15.8-12.5,15.8-22.6s-6.3-19.1-15.8-22.6L441.2,197.1C433.6,194.4,425.6,193,417.5,193z M225.5,569c0,35.3,86,72,192,72
	s192-36.7,192-72l-15.3-145.4L452,475c-11.1,4-22.8,6-34.5,6s-23.5-2-34.5-6l-142.2-51.4L225.5,569z"/>
</svg>
