<?xml version="1.0" standalone="no"?>
<!DOCTYPE svg PUBLIC "-//W3C//DTD SVG 20010904//EN"
 "http://www.w3.org/TR/2001/REC-SVG-20010904/DTD/svg10.dtd">
<svg version="1.0" xmlns="http://www.w3.org/2000/svg"
 width="700.000000pt" height="700.000000pt" viewBox="0 0 700.000000 700.000000"
 preserveAspectRatio="xMidYMid meet">
<metadata>
Created by potrace 1.14, written by Peter Selinger 2001-2017
</metadata>
<g transform="translate(0.000000,700.000000) scale(0.100000,-0.100000)"
fill="#000000" stroke="none">
<path d="M3299 6996 c-2 -2 -47 -6 -99 -10 -52 -3 -106 -8 -120 -10 -14 -2
-46 -7 -71 -10 -63 -9 -144 -23 -239 -42 -628 -126 -1269 -475 -1743 -948
-212 -213 -434 -502 -562 -731 -73 -132 -117 -218 -155 -305 -22 -52 -45 -104
-50 -115 -39 -80 -128 -358 -169 -525 -16 -69 -46 -229 -57 -310 -3 -25 -8
-53 -10 -63 -18 -98 -26 -549 -12 -717 13 -151 19 -205 25 -220 4 -8 5 -19 4
-24 -7 -29 80 -395 129 -546 77 -236 208 -522 330 -725 30 -49 57 -92 60 -95
3 -3 31 -43 62 -90 188 -283 492 -597 793 -820 95 -71 290 -200 302 -200 3 0
14 -6 22 -14 9 -8 81 -47 161 -88 371 -190 747 -306 1165 -362 237 -32 705
-27 922 8 21 4 56 9 78 11 85 11 234 44 385 87 300 84 550 192 850 365 137 79
378 256 515 378 117 104 273 264 364 373 397 477 654 1025 765 1632 13 74 27
162 31 195 3 33 8 74 11 90 10 58 11 531 2 630 -43 474 -172 915 -386 1325
-376 721 -1003 1296 -1757 1612 -241 101 -547 188 -790 224 -27 4 -57 9 -65
10 -8 2 -44 6 -80 10 -36 3 -78 8 -95 11 -36 5 -510 14 -516 9z"/>
</g>
</svg>
