<?xml version="1.0" standalone="no"?>
<!DOCTYPE svg PUBLIC "-//W3C//DTD SVG 20010904//EN"
 "http://www.w3.org/TR/2001/REC-SVG-20010904/DTD/svg10.dtd">
<svg version="1.0" xmlns="http://www.w3.org/2000/svg"
 width="512.000000pt" height="512.000000pt" viewBox="0 0 512.000000 512.000000"
 preserveAspectRatio="xMidYMid meet">
<metadata>
Created by potrace 1.14, written by Peter Selinger 2001-2017
</metadata>
<g transform="translate(0.000000,512.000000) scale(0.100000,-0.100000)"
fill="none" stroke="none">
<path d="M2330 5004 c-296 -36 -501 -89 -740 -191 -563 -240 -1039 -714 -1278
-1273 -87 -202 -145 -401 -178 -607 -22 -136 -30 -471 -15 -619 73 -726 467
-1382 1076 -1791 297 -200 634 -331 1000 -390 158 -26 575 -25 730 0 449 74
836 245 1175 518 108 87 298 279 383 387 262 330 431 718 504 1157 26 157 26
573 0 730 -73 439 -242 827 -504 1157 -85 108 -275 300 -383 387 -335 270
-733 446 -1165 516 -96 16 -521 29 -605 19z m985 -1367 c358 -129 744 -269
859 -311 212 -77 237 -90 262 -138 30 -59 5 -147 -52 -180 -43 -24 -1668 -609
-1739 -625 -105 -24 -141 -14 -663 173 -268 97 -489 178 -492 181 -8 8 64 66
117 95 26 15 262 110 523 213 261 103 483 194 494 203 62 56 22 162 -61 162
-25 0 -973 -373 -1044 -411 -125 -67 -229 -178 -294 -313 -52 -111 -66 -175
-72 -336 l-5 -145 35 -105 c83 -246 103 -478 65 -730 -13 -85 -45 -130 -93
-130 -14 0 -117 23 -228 50 -168 42 -206 55 -225 76 -37 41 -30 84 28 172 28
43 73 122 100 177 98 200 130 342 130 575 0 215 35 371 115 517 24 44 31 65
22 68 -401 141 -408 145 -415 243 -4 57 -2 62 29 96 32 35 82 55 794 312 1077
389 974 356 1075 351 82 -4 112 -14 735 -240z m-1758 -1128 c15 -6 214 -78
442 -160 281 -102 438 -153 489 -161 128 -19 183 -5 674 173 242 87 442 158
443 157 4 -7 87 -827 87 -860 -1 -49 -21 -85 -79 -139 -288 -270 -1132 -362
-1723 -189 -148 43 -318 129 -385 194 -84 83 -83 65 -31 560 25 236 46 431 46
432 0 6 7 5 37 -7z"/>
</g>
</svg>
