<?xml version="1.0" standalone="no"?>
<!DOCTYPE svg PUBLIC "-//W3C//DTD SVG 20010904//EN"
 "http://www.w3.org/TR/2001/REC-SVG-20010904/DTD/svg10.dtd">
<svg version="1.0" xmlns="http://www.w3.org/2000/svg"
 width="700.000000pt" height="700.000000pt" viewBox="0 0 700.000000 700.000000"
 preserveAspectRatio="xMidYMid meet">
<metadata>
Created by potrace 1.14, written by Peter Selinger 2001-2017
</metadata>
<g transform="translate(0.000000,700.000000) scale(0.100000,-0.100000)"
fill="#000000" stroke="none">
<path d="M3170 6839 c-105 -12 -165 -21 -170 -24 -3 -2 -27 -6 -55 -9 -40 -6
-223 -43 -295 -61 -275 -68 -646 -228 -910 -392 -112 -70 -290 -196 -330 -234
-9 -8 -36 -30 -60 -49 -50 -39 -136 -118 -214 -196 -408 -408 -690 -881 -852
-1429 -35 -118 -39 -134 -49 -176 -2 -11 -6 -28 -9 -37 -5 -17 -12 -50 -22
-112 -3 -19 -7 -37 -9 -40 -2 -3 -7 -33 -10 -65 -4 -33 -9 -62 -10 -66 -9 -15
-19 -270 -19 -484 0 -239 8 -375 28 -472 3 -15 8 -44 11 -63 5 -35 10 -62 21
-110 3 -14 7 -36 10 -50 25 -128 123 -433 191 -591 80 -186 219 -435 343 -611
161 -229 429 -514 637 -678 428 -337 858 -543 1386 -666 9 -2 27 -6 40 -9 219
-52 574 -70 966 -51 148 7 248 21 406 56 50 11 99 22 110 25 215 46 558 180
791 306 109 59 378 229 394 249 3 3 46 37 95 75 79 61 388 360 471 455 166
193 350 475 464 714 112 235 220 553 265 781 46 231 58 379 59 680 0 290 -22
514 -67 710 -43 180 -121 430 -172 550 -148 344 -306 611 -509 855 -67 82
-332 352 -426 436 -284 253 -716 494 -1125 629 -100 33 -237 73 -278 80 -11 3
-64 13 -116 24 -108 22 -152 29 -231 36 -186 17 -657 25 -750 14z m410 -1544
c95 -13 191 -46 1475 -511 807 -293 908 -331 955 -365 68 -49 89 -142 51 -224
-30 -65 -50 -78 -216 -140 -38 -15 -86 -33 -105 -40 -19 -8 -118 -44 -220 -80
-102 -36 -201 -72 -220 -80 -19 -7 -100 -36 -180 -65 -80 -28 -154 -55 -165
-60 -11 -4 -90 -33 -175 -63 -85 -31 -220 -79 -300 -107 -525 -188 -850 -300
-890 -307 -101 -17 -148 -8 -400 74 -237 77 -1131 402 -1145 415 -12 11 33 52
110 103 42 27 201 96 440 191 22 9 49 20 60 25 11 4 202 81 425 170 486 194
505 203 526 234 49 75 8 178 -78 191 -36 6 -36 6 -398 -133 -212 -82 -663
-259 -695 -273 -11 -5 -83 -35 -160 -66 -229 -92 -282 -124 -397 -233 -159
-151 -274 -385 -292 -592 -3 -35 -8 -126 -12 -201 l-5 -137 40 -126 c98 -304
121 -448 116 -730 -2 -110 -6 -216 -10 -235 -28 -158 -51 -209 -104 -226 -36
-12 -80 -4 -326 56 -216 52 -289 78 -324 112 -54 52 -43 101 54 260 88 141
214 405 229 481 2 6 6 19 9 27 9 25 36 152 41 198 10 77 16 184 21 337 3 83 7
173 10 200 16 141 65 302 140 456 25 51 44 94 42 95 -1 2 -59 23 -127 47 -406
145 -438 166 -447 290 -5 56 -2 71 16 101 35 55 87 82 371 187 74 28 144 54
155 59 11 4 40 15 65 23 25 9 115 41 200 72 85 31 193 70 240 87 47 17 119 43
160 59 41 15 165 60 275 99 110 39 216 77 235 85 79 32 633 226 710 248 81 23
123 25 220 12z m-1240 -1941 c69 -25 143 -52 165 -60 22 -8 51 -19 65 -24 14
-4 77 -27 140 -50 167 -61 512 -181 531 -185 9 -2 48 -13 88 -25 91 -27 191
-31 289 -13 87 17 564 171 657 213 21 10 593 213 633 225 17 5 22 2 23 -12 0
-10 2 -26 4 -36 2 -9 6 -50 10 -90 3 -39 8 -83 10 -97 7 -45 16 -138 30 -285
3 -33 8 -76 10 -95 2 -19 7 -62 10 -95 10 -105 16 -169 20 -205 7 -59 17 -182
20 -240 2 -73 -21 -119 -100 -195 -170 -164 -509 -293 -920 -350 -22 -3 -49
-7 -60 -10 -90 -19 -607 -28 -785 -13 -73 6 -274 32 -320 42 -8 1 -33 6 -55
10 -368 71 -740 256 -822 410 -15 29 -19 146 -9 266 6 76 17 184 21 215 2 17
6 59 10 95 8 92 15 160 20 195 2 17 7 57 11 90 3 33 7 74 9 90 2 17 6 57 9 90
13 128 16 161 22 196 l5 37 67 -25 c37 -14 123 -45 192 -69z"/>
</g>
</svg>
