<?xml version="1.0" encoding="utf-8"?>
<!-- Generator: Adobe Illustrator 26.4.1, SVG Export Plug-In . SVG Version: 6.00 Build 0)  -->
<svg version="1.1" xmlns="http://www.w3.org/2000/svg" xmlns:xlink="http://www.w3.org/1999/xlink" x="0px" y="0px"
	 viewBox="0 0 1080 1920" style="enable-background:new 0 0 1080 1920;" xml:space="preserve">
<g id="Layer_1">
	<circle style="fill:#321A81;stroke:#FFFFFF;stroke-miterlimit:10;" cx="563.5" cy="1081.5" r="416.5"/>
	<path style="fill:#FFFFFF;" d="M564,857.5c-8.1,0-16.1,1.4-23.7,4.1L259.8,962.9c-9.5,3.5-15.8,12.5-15.8,22.6
		c0,10.1,6.3,19.1,15.8,22.6l57.9,20.9c-16.4,25.8-25.7,56.3-25.7,88.4v28.1c0,28.4-10.8,57.7-22.3,80.8
		c-6.5,13-13.9,25.8-22.5,37.6c-3.2,4.3-4.1,9.9-2.3,15c1.8,5.1,6,8.9,11.2,10.2l64,16c4.2,1.1,8.7,0.3,12.4-2
		c3.7-2.3,6.3-6.1,7.1-10.4c8.6-42.8,4.3-81.2-2.1-108.7c-3.2-14.2-7.5-28.7-13.5-42v-24.6c0-30.2,10.2-58.7,27.9-81.5
		c12.9-15.5,29.6-28,49.2-35.7l157-61.7c8.2-3.2,17.5,0.8,20.7,9c3.2,8.2-0.8,17.5-9,20.7l-157,61.7c-12.4,4.9-23.3,12.4-32.2,21.6
		l159.6,57.6c7.6,2.7,15.6,4.1,23.7,4.1s16.1-1.4,23.7-4.1l280.6-101c9.5-3.4,15.8-12.5,15.8-22.6c0-10.1-6.3-19.1-15.8-22.6
		L587.7,861.6C580.1,858.9,572.1,857.5,564,857.5z M372,1233.5c0,35.3,86,72,192,72s192-36.7,192-72l-15.3-145.4l-142.2,51.4
		c-11.1,4-22.8,6-34.5,6s-23.5-2-34.5-6l-142.2-51.4L372,1233.5z"/>
</g>
<g id="Layer_2">
</g>
</svg>
